<svg width="49" height="48" viewBox="0 0 49 48" fill="none" xmlns="http://www.w3.org/2000/svg">
<rect x="0.800781" width="48" height="48" rx="23.6967" fill="#33CC79"/>
<path d="M39.942 27.2416C40.003 28.1507 39.6849 29.0442 39.0641 29.7104C38.4419 30.3752 37.5711 30.7531 36.6606 30.7531C35.7501 30.7531 34.8807 30.3752 34.2585 29.7104C33.6364 29.0442 33.3196 28.1507 33.3806 27.2416C33.3721 27.1862 33.3721 27.1308 33.3806 27.0754L30.2442 26.1961C29.6774 27.4845 28.6746 28.5314 27.4103 29.1507L28.3649 31.9392H28.6078C30.1163 31.9278 31.4033 33.0273 31.6278 34.5188C31.8522 36.0118 30.9445 37.4408 29.4998 37.8726C28.0538 38.3044 26.5111 37.6084 25.879 36.239C25.2469 34.8683 25.7199 33.2432 26.987 32.4237L26.0481 29.6665H26.0466C25.6532 29.746 25.2526 29.7858 24.8506 29.7872C23.3207 29.7886 21.8519 29.1906 20.7595 28.121L18.4101 30.0003C18.7581 30.614 18.9413 31.3086 18.9413 32.0146C18.9612 34.0275 17.5691 35.7791 15.6046 36.2136C13.64 36.6497 11.6386 35.6497 10.8062 33.8173C9.97524 31.9848 10.5392 29.8201 12.16 28.628C13.7808 27.4348 16.0154 27.5399 17.5165 28.878L19.8958 26.9689C19.3262 26.0612 19.0265 25.01 19.0322 23.939C19.0421 23.3949 19.1231 22.8551 19.2737 22.3324L15.5776 20.7116C14.6329 22.0156 12.8814 22.4404 11.4454 21.7116C10.0093 20.9844 9.31611 19.3195 9.81045 17.7883C10.3062 16.2556 11.8417 15.3109 13.4313 15.5595C15.0222 15.8081 16.1956 17.1774 16.1984 18.7869C16.1998 18.99 16.1856 19.1931 16.153 19.3934L19.8505 20.9091C20.6133 19.6349 21.8407 18.7059 23.2739 18.3181L22.9856 16.6064L22.987 16.605C21.2966 16.5525 19.9187 15.2328 19.7952 13.5467C19.6701 11.8606 20.8406 10.352 22.504 10.0523C24.1688 9.75395 25.7897 10.7597 26.2612 12.3833C26.7328 14.0084 25.9004 15.7257 24.335 16.3634L24.6234 18.0907H24.8961C26.4345 18.0907 27.9118 18.7001 29.0013 19.7868L29.1377 19.9686L33.1378 17.0893V17.0907C33.0412 16.8279 32.9901 16.5509 32.9872 16.2725C32.973 15.0949 33.7728 14.0622 34.9177 13.7838C36.0612 13.5039 37.2473 14.0508 37.7772 15.1034C38.307 16.1546 38.0414 17.433 37.1351 18.1873C36.2302 18.9402 34.9248 18.9686 33.9873 18.2569L29.9872 21.1505C30.456 22.0056 30.706 22.963 30.7145 23.9389C30.706 24.2287 30.6761 24.517 30.6236 24.8026L33.7898 25.6961C34.4987 24.3849 36.0044 23.7187 37.4518 24.0753C38.8993 24.4318 39.922 25.7216 39.9419 27.2117L39.942 27.2416ZM12.0008 26.9689H12.123C12.3105 26.9291 12.4752 26.8154 12.5775 26.6521C12.6798 26.4901 12.7125 26.2927 12.6684 26.1052C12.5576 25.4447 12.4909 24.7756 12.471 24.1051C12.4866 23.9105 12.4127 23.7202 12.2721 23.5852C12.1315 23.4503 11.9369 23.3849 11.7437 23.4091C11.3474 23.4162 11.032 23.7401 11.032 24.1364C11.0505 24.8779 11.1215 25.6165 11.2437 26.3481C11.2906 26.7231 11.6244 26.9958 12.0008 26.9689ZM27.9871 12.0906C29.2783 12.4401 30.5028 13.0026 31.6079 13.7568C31.7315 13.8335 31.8721 13.8747 32.017 13.8776C32.2514 13.8804 32.473 13.7668 32.6079 13.575C32.7131 13.4088 32.7471 13.2071 32.7017 13.0167C32.6562 12.825 32.5341 12.6602 32.365 12.5593C31.1249 11.7156 29.7527 11.0863 28.3053 10.6957C27.9203 10.5991 27.5297 10.8292 27.426 11.2113C27.3763 11.4031 27.4089 11.6062 27.5155 11.7724C27.622 11.94 27.7925 12.0537 27.9871 12.0906ZM34.1378 31.8639C33.8111 32.2673 33.4517 32.6423 33.0625 32.9847C32.9262 33.1182 32.8495 33.3014 32.8495 33.4918C32.8495 33.6835 32.9262 33.8653 33.0625 34.0003C33.1932 34.158 33.3878 34.2475 33.5924 34.2418C33.7713 34.2418 33.9432 34.1779 34.0782 34.06C34.5214 33.6608 34.9319 33.2247 35.3055 32.7574C35.4276 32.6096 35.4859 32.4179 35.466 32.2275C35.4461 32.0358 35.3495 31.8611 35.1989 31.7417C35.0455 31.6096 34.8438 31.5486 34.6421 31.5713C34.4404 31.594 34.2586 31.7005 34.1378 31.8639ZM23.9557 36.1822C22.6119 36.0885 21.2909 35.7759 20.0465 35.2575C19.8732 35.1779 19.6729 35.1722 19.4954 35.2447C19.3178 35.3157 19.1772 35.4577 19.1076 35.6367C19.0323 35.8114 19.0295 36.0089 19.1005 36.185C19.1715 36.3612 19.3107 36.5018 19.4869 36.5757C20.8761 37.1708 22.3562 37.5246 23.8648 37.6211C24.2441 37.6297 24.5609 37.3328 24.5779 36.9549C24.6134 36.5714 24.3378 36.2291 23.9557 36.1822ZM37.1535 19.8479C36.9674 19.8948 36.8083 20.0141 36.7103 20.1789C36.6137 20.3437 36.5881 20.5411 36.6379 20.7272C36.7487 21.1519 36.8396 21.5752 36.9106 22C36.9646 22.3508 37.2686 22.6094 37.6237 22.6051H37.7302H37.7288C37.9206 22.5753 38.091 22.4716 38.2047 22.3153C38.3197 22.1591 38.3652 21.963 38.3353 21.7727C38.2601 21.3025 38.1535 20.8338 38.0328 20.3636C37.9291 19.98 37.5385 19.7513 37.1535 19.8479ZM16.0464 15.0594C16.2296 15.0509 16.4015 14.9756 16.5322 14.8478C16.9995 14.4074 17.5066 14.0125 18.0464 13.6659C18.3263 13.4202 18.3746 13.004 18.1601 12.7014C17.947 12.3974 17.5379 12.3037 17.214 12.4841C16.6032 12.8747 16.0307 13.3222 15.5009 13.8179C15.2807 14.0154 15.2054 14.3307 15.3134 14.6063C15.4214 14.8833 15.6898 15.0637 15.9867 15.0595L16.0464 15.0594Z" fill="white"/>
</svg>
