<svg width="67" height="67" viewBox="0 0 67 67" fill="none" xmlns="http://www.w3.org/2000/svg">
<rect width="67" height="67" rx="33.5" fill="#ED6466"/>
<path d="M39.785 18.5H27.215C21.755 18.5 18.5 21.755 18.5 27.215V39.77C18.5 45.245 21.755 48.5 27.215 48.5H39.77C45.23 48.5 48.485 45.245 48.485 39.785V27.215C48.5 21.755 45.245 18.5 39.785 18.5ZM26.945 42.725C26.945 43.34 26.435 43.85 25.82 43.85C25.205 43.85 24.695 43.34 24.695 42.725V39.62C24.695 39.005 25.205 38.495 25.82 38.495C26.435 38.495 26.945 39.005 26.945 39.62V42.725ZM34.625 42.725C34.625 43.34 34.115 43.85 33.5 43.85C32.885 43.85 32.375 43.34 32.375 42.725V36.5C32.375 35.885 32.885 35.375 33.5 35.375C34.115 35.375 34.625 35.885 34.625 36.5V42.725ZM42.305 42.725C42.305 43.34 41.795 43.85 41.18 43.85C40.565 43.85 40.055 43.34 40.055 42.725V33.395C40.055 32.78 40.565 32.27 41.18 32.27C41.795 32.27 42.305 32.78 42.305 33.395V42.725ZM42.305 28.655C42.305 29.27 41.795 29.78 41.18 29.78C40.565 29.78 40.055 29.27 40.055 28.655V27.2C36.23 31.13 31.445 33.905 26.09 35.24C26 35.27 25.91 35.27 25.82 35.27C25.31 35.27 24.86 34.925 24.725 34.415C24.575 33.815 24.935 33.2 25.55 33.05C30.605 31.79 35.105 29.135 38.675 25.385H36.8C36.185 25.385 35.675 24.875 35.675 24.26C35.675 23.645 36.185 23.135 36.8 23.135H41.195C41.255 23.135 41.3 23.165 41.36 23.165C41.435 23.18 41.51 23.18 41.585 23.21C41.66 23.24 41.72 23.285 41.795 23.33C41.84 23.36 41.885 23.375 41.93 23.405C41.945 23.42 41.945 23.435 41.96 23.435C42.02 23.495 42.065 23.555 42.11 23.615C42.155 23.675 42.2 23.72 42.215 23.78C42.245 23.84 42.245 23.9 42.26 23.975C42.275 24.05 42.305 24.125 42.305 24.215C42.305 24.23 42.32 24.245 42.32 24.26V28.655H42.305Z" fill="white"/>
</svg>
