<svg width="49" height="48" viewBox="0 0 49 48" fill="none" xmlns="http://www.w3.org/2000/svg">
<rect x="0.800781" width="48" height="48" rx="23.6967" fill="#EED064"/>
<path fill-rule="evenodd" clip-rule="evenodd" d="M27.7245 32.4558C27.715 32.3953 27.7195 32.3334 27.7377 32.2749C27.7559 32.2164 27.7872 32.1629 27.8293 32.1184L30.3093 29.5259L26.804 28.8902C26.7405 28.8827 26.6797 28.8599 26.6268 28.8239C26.5739 28.7879 26.5305 28.7396 26.5003 28.6832L24.8016 25.5257L23.1024 28.683C23.0739 28.7357 23.0339 28.7813 22.9854 28.8165C22.9369 28.8516 22.8811 28.8755 22.8222 28.8862L19.2942 29.5262L21.7742 32.1187C21.8154 32.1618 21.8463 32.2137 21.8648 32.2704C21.8832 32.3271 21.8887 32.3873 21.8808 32.4464L21.3982 36C22.475 35.4814 23.5517 34.9627 24.6283 34.4437C24.6823 34.4176 24.7416 34.4041 24.8016 34.4041C24.8617 34.4041 24.9209 34.4176 24.975 34.4437L28.2051 36L27.7251 32.4558H27.7245ZM28.1437 13.3844C27.4827 12.7234 26.6405 12.2732 25.7236 12.0908C24.8067 11.9084 23.8564 12.002 22.9927 12.3598C22.129 12.7175 21.3908 13.3234 20.8715 14.1007C20.3521 14.878 20.0749 15.7918 20.0749 16.7266C20.0749 17.6615 20.3521 18.5753 20.8715 19.3526C21.3908 20.1299 22.129 20.7357 22.9927 21.0935C23.8564 21.4512 24.8067 21.5448 25.7236 21.3625C26.6405 21.1801 27.4827 20.7299 28.1437 20.0689C29.0301 19.1824 29.528 17.9802 29.528 16.7266C29.528 15.4731 29.0301 14.2708 28.1437 13.3844ZM29.5784 26.7251L31.2776 23.5681L32.9762 26.7257C33.0067 26.7823 33.0504 26.8307 33.1035 26.8669C33.1567 26.903 33.2177 26.9258 33.2816 26.9334L36.785 27.568L34.3056 30.16C34.2633 30.2044 34.2319 30.2578 34.2137 30.3163C34.1955 30.3748 34.1911 30.4366 34.2008 30.4971L34.6808 34.0416L31.4509 32.4862C31.3969 32.46 31.3376 32.4464 31.2776 32.4464C31.2176 32.4464 31.1583 32.46 31.1043 32.4862L28.6901 33.6491L28.5384 32.5291L31.3971 29.5411C31.4461 29.4888 31.4802 29.4242 31.4957 29.3542C31.5112 29.2842 31.5076 29.2113 31.4853 29.1431C31.4629 29.0749 31.4227 29.014 31.3688 28.9668C31.3148 28.9195 31.2492 28.8876 31.1787 28.8744L27.1117 28.1371L26.7136 27.3971L29.2981 26.9283C29.3572 26.9178 29.4131 26.8941 29.4616 26.8589C29.5102 26.8237 29.5501 26.778 29.5784 26.7251ZM18.3257 23.5681L20.0243 26.7257C20.0545 26.7822 20.0978 26.8306 20.1507 26.8668C20.2036 26.9029 20.2644 26.9258 20.3281 26.9334L22.8896 27.3979L22.4915 28.1379L18.4441 28.8712C18.371 28.8806 18.302 28.91 18.2447 28.9563C18.1873 29.0025 18.144 29.0637 18.1193 29.1331C18.0947 29.2025 18.0897 29.2774 18.1051 29.3494C18.1204 29.4214 18.1554 29.4878 18.2062 29.5411L21.0646 32.5299L20.9128 33.6499L18.4987 32.487C18.4447 32.4608 18.3854 32.4472 18.3254 32.4472C18.2654 32.4472 18.2061 32.4608 18.1521 32.487C17.0737 33.0019 15.9982 33.5245 14.9217 34.0432L15.4035 30.4894C15.4115 30.4302 15.4061 30.3701 15.3876 30.3133C15.3691 30.2566 15.3381 30.2047 15.2969 30.1616L12.8169 27.5688L16.3446 26.9289C16.4036 26.9184 16.4595 26.8946 16.5081 26.8595C16.5566 26.8243 16.5966 26.7785 16.6249 26.7257L18.3257 23.5681ZM26.3174 26.6614L25.1547 24.5014C25.1208 24.4376 25.0702 24.3843 25.0084 24.3469C24.9466 24.3096 24.8759 24.2897 24.8037 24.2893C24.7315 24.2889 24.6605 24.3081 24.5983 24.3447C24.5361 24.3814 24.485 24.4343 24.4504 24.4977L23.2859 26.6622L20.6358 26.1822L19.3662 23.8225C22.5227 21.7315 27.0781 21.7299 30.2371 23.8225L28.9675 26.1825L26.3174 26.6614Z" fill="white"/>
</svg>
