<svg width="49" height="48" viewBox="0 0 49 48" fill="none" xmlns="http://www.w3.org/2000/svg">
<rect x="0.800781" width="48" height="48" rx="23.6967" fill="#6864ED"/>
<path d="M33.8908 18.98C33.0408 18.04 31.6208 17.57 29.5608 17.57H29.3208V17.53C29.3208 15.85 29.3208 13.77 25.5608 13.77H24.0408C20.2808 13.77 20.2808 15.86 20.2808 17.53V17.58H20.0408C17.9708 17.58 16.5608 18.05 15.7108 18.99C14.7208 20.09 14.7508 21.57 14.8508 22.58L14.8608 22.65L14.9383 23.4633C14.9525 23.6131 15.0332 23.7484 15.1591 23.8307C15.3989 23.9877 15.8002 24.2464 16.0408 24.38C16.1808 24.47 16.3308 24.55 16.4808 24.63C18.1908 25.57 20.0708 26.2 21.9808 26.51C22.0708 27.45 22.4808 28.55 24.6708 28.55C26.8608 28.55 27.2908 27.46 27.3608 26.49C29.4008 26.16 31.3708 25.45 33.1508 24.41C33.2108 24.38 33.2508 24.35 33.3008 24.32C33.6975 24.0958 34.1091 23.8195 34.4843 23.5489C34.5973 23.4673 34.6696 23.3413 34.685 23.2028L34.7008 23.06L34.7508 22.59C34.7608 22.53 34.7608 22.48 34.7708 22.41C34.8508 21.4 34.8308 20.02 33.8908 18.98ZM25.8908 25.83C25.8908 26.89 25.8908 27.05 24.6608 27.05C23.4308 27.05 23.4308 26.86 23.4308 25.84V24.58H25.8908V25.83ZM21.7108 17.57V17.53C21.7108 15.83 21.7108 15.2 24.0408 15.2H25.5608C27.8908 15.2 27.8908 15.84 27.8908 17.53V17.58H21.7108V17.57Z" fill="white"/>
<path d="M33.6741 25.7341C34.0277 25.5659 34.435 25.8462 34.3996 26.2361L34.0406 30.19C33.8306 32.19 33.0106 34.23 28.6106 34.23H20.9906C16.5906 34.23 15.7706 32.19 15.5606 30.2L15.2199 26.4521C15.1849 26.0667 15.5828 25.7867 15.9355 25.9463C17.0749 26.4618 19.178 27.3764 20.4772 27.7166C20.6415 27.7597 20.7744 27.8773 20.8463 28.0311C21.4533 29.3292 22.7697 30.02 24.6706 30.02C26.5527 30.02 27.8858 29.3026 28.4948 28.0013C28.5668 27.8474 28.6998 27.7298 28.8642 27.6865C30.2438 27.3235 32.4824 26.3012 33.6741 25.7341Z" fill="white"/>
</svg>
