<svg width="49" height="48" viewBox="0 0 49 48" fill="none" xmlns="http://www.w3.org/2000/svg">
<rect x="0.800781" width="48" height="48" rx="23.6967" fill="#AB64ED"/>
<path d="M34.8007 24.86C34.8007 27.15 33.6207 29.18 31.8007 30.46L30.4607 33.41C30.1507 34.08 29.2507 34.21 28.7807 33.64L27.3007 31.86C25.4407 31.86 23.7307 31.23 22.4307 30.18L23.0307 29.47C27.6507 29.12 31.3007 25.46 31.3007 21C31.3007 20.24 31.1907 19.49 30.9907 18.77C33.2607 19.97 34.8007 22.25 34.8007 24.86Z" fill="white"/>
<path d="M29.1008 18.07C27.9308 15.67 25.3208 14 22.3008 14C18.1608 14 14.8008 17.13 14.8008 21C14.8008 23.29 15.9808 25.32 17.8008 26.6L19.1408 29.55C19.4508 30.22 20.3508 30.34 20.8208 29.78L21.3708 29.12L22.3008 28C26.4408 28 29.8008 24.87 29.8008 21C29.8008 19.95 29.5508 18.96 29.1008 18.07ZM24.8008 21.75H19.8008C19.3908 21.75 19.0508 21.41 19.0508 21C19.0508 20.59 19.3908 20.25 19.8008 20.25H24.8008C25.2108 20.25 25.5508 20.59 25.5508 21C25.5508 21.41 25.2108 21.75 24.8008 21.75Z" fill="white"/>
</svg>
