<svg width="49" height="48" viewBox="0 0 49 48" fill="none" xmlns="http://www.w3.org/2000/svg">
<rect x="0.800781" width="48" height="48" rx="23.6967" fill="#ED6466"/>
<path d="M22.3304 32.5842C22.7462 31.716 23.1283 30.8132 23.4717 29.8931C23.8284 28.9383 24.1463 27.961 24.4245 26.9797L24.8005 25.6529L25.1765 26.9797C25.4547 27.962 25.7737 28.9393 26.1303 29.8952C26.4737 30.8154 26.8548 31.7172 27.2706 32.5845C27.4387 32.9361 27.7353 33.1867 28.0777 33.308C28.4191 33.4282 28.8073 33.4191 29.1589 33.252C29.5115 33.0838 29.7621 32.7862 29.8834 32.4449C30.0046 32.1025 29.9945 31.7142 29.8273 31.3627C29.4268 30.5281 29.062 29.6507 28.7329 28.7488C28.3864 27.799 28.0797 26.8228 27.8127 25.8406C27.6089 25.0896 27.4265 24.3263 27.2665 23.5641C27.1045 22.7927 26.969 22.0335 26.8609 21.2988L26.7988 20.8759C27.2288 20.8524 27.667 20.8371 28.094 20.8035C28.6514 20.7689 29.1833 20.7281 29.6948 20.6823C30.1982 20.6374 30.7251 20.5814 31.2682 20.5192C31.6575 20.4744 31.9927 20.2757 32.2179 19.9924C32.4442 19.7091 32.5613 19.3372 32.5175 18.9479C32.4727 18.5596 32.274 18.2234 31.9897 17.9982C31.7054 17.7719 31.3344 17.6548 30.9452 17.6986C30.4632 17.7546 29.9557 17.8066 29.4248 17.8545C28.898 17.9014 28.3946 17.9411 27.9166 17.9707L27.881 17.9727C27.3572 18.0053 26.8344 18.0308 26.3107 18.0501C25.8032 18.0685 25.2998 18.0807 24.7984 18.0848C24.2981 18.0807 23.7947 18.0685 23.2872 18.0501C22.7624 18.0308 22.2366 18.0053 21.7118 17.9727C21.2227 17.9421 20.7131 17.9034 20.1863 17.8555C19.6513 17.8076 19.1408 17.7546 18.6547 17.6976C18.2654 17.6527 17.8945 17.7709 17.6102 17.9971C17.3259 18.2234 17.1272 18.5586 17.0824 18.9469C17.0375 19.3361 17.1557 19.7071 17.3819 19.9914C17.6082 20.2757 17.9434 20.4744 18.3317 20.5182C18.885 20.5824 19.419 20.6384 19.9295 20.6843C20.4431 20.7302 20.9791 20.7709 21.5375 20.8056L22.8021 20.8749L22.74 21.2977C22.632 22.0325 22.4964 22.7916 22.3344 23.563C22.1744 24.3253 21.992 25.0885 21.7882 25.8396C21.5212 26.8219 21.2135 27.7981 20.868 28.747C20.5389 29.6488 20.1741 30.5272 19.7736 31.3617C19.6055 31.7132 19.5963 32.1015 19.7165 32.4439C19.8378 32.7862 20.0885 33.0828 20.44 33.2509C20.7916 33.4191 21.1798 33.4282 21.5222 33.308C21.8646 33.1867 22.1612 32.9361 22.3293 32.5855L22.3304 32.5842ZM18.8984 31.5458C18.0424 31.7833 17.3332 32.0706 16.8185 32.3927C16.2846 32.7259 15.9819 33.0785 15.9819 33.4219C15.9819 34.0527 16.9093 34.6671 18.4072 35.1501C20.0366 35.6749 22.2968 36 24.8006 36C27.3054 36 29.5657 35.6749 31.194 35.1501C32.692 34.6671 33.6193 34.0527 33.6193 33.4219C33.6193 33.0785 33.3167 32.7269 32.7827 32.3927C32.2681 32.0706 31.5579 31.7843 30.7029 31.5458C30.7803 31.9382 30.7477 32.3387 30.6193 32.7035C30.4328 33.2323 30.0426 33.6919 29.4953 33.9538C28.9481 34.2157 28.3459 34.231 27.817 34.0445C27.2881 33.858 26.8295 33.4677 26.5677 32.9215C26.1397 32.0289 25.7504 31.1056 25.3988 30.167C25.1848 29.5953 24.9851 29.0176 24.8007 28.4377C24.6152 29.0165 24.4165 29.5943 24.2025 30.165C23.8519 31.1035 23.4617 32.0277 23.0336 32.9203C22.7718 33.4675 22.3122 33.8568 21.7843 34.0443C21.2544 34.2307 20.6532 34.2155 20.106 33.9536C19.5577 33.6917 19.1685 33.2321 18.981 32.7032C18.8526 32.3374 18.82 31.9389 18.8974 31.5456L18.8984 31.5458ZM26.6246 12.7551C26.1589 12.2884 25.5139 12 24.8005 12C24.0974 12 23.4605 12.2802 22.9867 12.7459C22.5108 13.2218 22.2224 13.8669 22.2224 14.5791C22.2224 15.2914 22.5108 15.9365 22.9765 16.4032C23.4432 16.8689 24.0882 17.1573 24.8005 17.1573C25.5128 17.1573 26.1579 16.8689 26.6246 16.4032C27.0903 15.9365 27.3787 15.2915 27.3787 14.5791C27.3787 13.8668 27.0892 13.2218 26.6236 12.7551H26.6246Z" fill="white"/>
</svg>
