<svg width="67" height="67" viewBox="0 0 67 67" fill="none" xmlns="http://www.w3.org/2000/svg">
<rect width="67" height="67" rx="33.5" fill="#EED064"/>
<path d="M24.5009 35.3364C23.3447 36.413 22.6285 37.8952 22.7975 39.8457L23.1443 43.6799C23.2924 45.315 24.6546 46.5582 26.2985 46.5582H27.0879L26.684 41.134C26.6454 40.6069 27.446 40.5474 27.487 41.0744L27.895 46.5573H39.1079L39.4981 41.3182C39.5368 40.7888 40.3374 40.8483 40.2988 41.3778L39.9133 46.5582H40.7027C42.3474 46.5582 43.7089 45.315 43.857 43.6799L44.2038 39.8457C44.3728 37.8952 43.6566 36.413 42.5003 35.3364C38.9888 32.0566 28.0229 32.047 24.5009 35.3364ZM38.8818 24.0913C35.9255 22.9053 31.0742 22.9053 28.1179 24.0913C25.4062 25.1816 25.4062 26.6984 28.1179 27.7863C31.0742 28.9748 35.9255 28.9748 38.8818 27.7863C41.5967 26.6984 41.5967 25.1816 38.8818 24.0913ZM39.3863 28.4461C36.1926 29.8261 30.8078 29.8261 27.6142 28.4461C29.8704 33.4567 37.1325 33.4543 39.3863 28.4461ZM39.5271 23.4959C38.5849 21.0344 36.2151 19.3495 33.501 19.3495C30.7845 19.3495 28.4148 21.0352 27.4725 23.4959C30.6863 22.0338 36.3157 22.0338 39.5271 23.4959ZM41.3706 29.8736C41.2225 29.7094 41.2338 29.456 41.3979 29.3079C41.5621 29.1574 41.8156 29.1687 41.966 29.3329C44.3357 31.9424 46.5413 34.8279 48.2496 37.7423C48.5167 38.1986 47.8255 38.6049 47.5584 38.1487C45.8847 35.293 43.6968 32.4372 41.3706 29.8736ZM22.8924 33.8792C23.0292 34.0522 22.997 34.3056 22.8216 34.44C22.6486 34.5768 22.3976 34.547 22.2608 34.3716C20.954 32.6995 19.7221 30.9277 18.6913 29.1526C18.4266 28.6964 19.1226 28.2924 19.3874 28.7487C20.3932 30.4803 21.6227 32.253 22.8924 33.8792ZM29.9589 41.4421C30.1231 41.5902 30.1343 41.8437 29.9863 42.0078C29.8382 42.172 29.5848 42.1856 29.4206 42.0376C27.6737 40.4548 25.988 38.753 24.439 36.9924C24.2909 36.8258 24.3086 36.5724 24.4752 36.4267C24.6418 36.2787 24.8952 36.2964 25.0409 36.4629C26.5834 38.2123 28.2394 39.8867 29.9589 41.4421ZM33.011 42.8567C32.1396 41.9877 30.6477 42.6057 30.6477 43.8352C30.6477 45.0647 32.1396 45.6827 33.011 44.8137C33.5517 44.2729 33.5517 43.3975 33.011 42.8567ZM32.0325 41.6457C33.9758 41.6457 34.9542 44.0066 33.5791 45.3817C32.2039 46.7569 29.8431 45.7784 29.8431 43.8352C29.8431 42.6266 30.8231 41.6457 32.0325 41.6457ZM50.3119 39.7636C49.4429 38.8946 47.9487 39.5126 47.9487 40.7421C47.9487 41.9716 49.4429 42.5896 50.3119 41.7206C50.8519 41.1798 50.8519 40.3044 50.3119 39.7636ZM18.6728 25.2959C17.8038 24.4269 16.3095 25.0448 16.3095 26.2768C16.3095 27.5063 17.8038 28.1243 18.6728 27.2552C19.2135 26.7145 19.2135 25.8366 18.6728 25.2959ZM37.6136 24.5958C37.8896 24.1468 38.572 24.5685 38.296 25.0159L36.8959 27.285C36.6199 27.734 35.9375 27.3124 36.2135 26.8634L37.6136 24.5958ZM35.392 24.5958C35.668 24.1468 36.3503 24.5685 36.0743 25.0159L34.6742 27.285C34.3982 27.734 33.7159 27.3124 33.9919 26.8634L35.392 24.5958ZM47.568 43.3878C47.8714 42.9565 48.528 43.42 48.2246 43.8505C46.5872 46.1751 44.4106 48.095 41.8791 49.43C43.2406 49.9908 44.5023 50.3585 45.624 50.513C47.3693 50.7544 48.7581 50.4809 49.6223 49.6191C50.8269 48.4121 50.7287 46.3554 50.3296 44.6189C50.2113 44.1056 50.9935 43.9253 51.1118 44.4411C51.5793 46.4713 51.6203 48.7565 50.1904 50.1864C49.1363 51.2405 47.5149 51.5848 45.5146 51.3064C44.1483 51.1173 42.5969 50.6378 40.928 49.8943C34.0715 53.0075 26.0403 51.4931 20.7738 46.2242C16.4125 41.863 14.5514 35.5609 15.9635 29.423C16.0818 28.9072 16.8648 29.0874 16.7481 29.6032C15.4003 35.4603 17.177 41.4888 21.3419 45.6537C26.1891 50.501 33.5171 52.0475 39.9544 49.4404C39.4957 49.2143 39.0282 48.9705 38.5559 48.7082C38.3596 48.6012 38.2887 48.3566 38.3966 48.1634C38.5036 47.9695 38.7482 47.8963 38.9413 48.0041C39.6188 48.3783 40.2803 48.7154 40.9232 49.0124C43.5874 47.7378 45.875 45.7897 47.568 43.3878ZM19.6971 23.2456C19.3801 23.6673 18.7388 23.1837 19.0558 22.762C20.6957 20.5887 22.7532 18.8136 25.1141 17.5615C22.7508 16.5895 19.1492 15.6046 17.3797 17.3765C15.9563 18.7975 16.3353 21.4118 16.9533 23.4186C17.1086 23.9223 16.3417 24.1597 16.1848 23.656C15.4687 21.3249 15.1355 18.4804 16.81 16.8068C19.0092 14.6076 23.2079 15.8259 26.066 17.094C28.3263 16.0633 30.8352 15.5 33.5018 15.5C44.2408 15.5048 52.5955 24.8405 51.3845 35.54C51.3089 36.2223 51.193 36.8926 51.0426 37.5516C50.9243 38.0674 50.1413 37.8872 50.2604 37.3714C51.6018 31.5207 49.8155 25.4971 45.6618 21.341C42.5486 18.2278 38.2485 16.3022 33.5026 16.2998C31.2037 16.2998 29.0271 16.74 27.0388 17.5495C27.3374 17.6951 27.6431 17.8504 27.9489 18.0146C28.4164 18.2608 28.0382 18.9729 27.5723 18.7243C27.0614 18.4531 26.5593 18.2045 26.0692 17.9783C23.5675 19.1829 21.4014 20.9894 19.6971 23.2456Z" fill="white"/>
</svg>
