<svg width="67" height="67" viewBox="0 0 67 67" fill="none" xmlns="http://www.w3.org/2000/svg">
<rect width="67" height="67" rx="33.5" fill="#33CC79"/>
<path d="M45.3287 28.7965L43.4534 25.5492V25.5508C43.3178 25.3123 43.0222 25.2192 42.7739 25.3368C42.1581 25.559 41.3332 26.2189 40.9493 25.8154V25.8138C39.6589 24.5577 38.076 23.6397 36.3428 23.1464C35.789 23.0336 35.9524 22.0258 35.8266 21.3218C35.8054 21.0522 35.5816 20.8448 35.3104 20.8432H31.5616C30.5178 20.8677 31.3852 22.9324 30.5293 23.1464C28.7945 23.6364 27.2117 24.5544 25.9227 25.8138C25.5323 26.2173 24.727 25.5622 24.0851 25.3352V25.3368C23.8368 25.2225 23.5428 25.314 23.4056 25.5492L21.5303 28.7965C21.1775 29.4254 22.2605 29.8158 22.8012 30.2944C22.9825 30.4153 23.0674 30.6374 23.0152 30.8481C22.5627 32.5845 22.5627 34.4091 23.0152 36.1471C23.2422 37.0161 21.0518 37.2922 21.5303 38.2118L23.4056 41.4592V41.4575C23.5428 41.6927 23.8368 41.7859 24.0851 41.6715C24.7401 41.433 25.5323 40.778 25.9227 41.1929C27.2115 42.4523 28.7944 43.3703 30.5293 43.8604C30.7334 43.9159 30.8837 44.0907 30.9066 44.3014C31.0324 45.0446 30.8315 46.1635 31.5616 46.1635H35.3121C36.0275 46.1799 35.8315 44.9989 35.9671 44.3014C36.1027 43.648 37.2346 43.715 37.7296 43.3458L37.7279 43.3442C36.5698 40.9299 36.6041 38.1121 37.8211 35.7256C39.038 33.3407 41.2971 31.6566 43.9317 31.1747C43.3192 29.9496 45.8497 29.7897 45.3287 28.7965ZM38.7852 32.6597C38.4764 32.7871 38.1302 32.7854 37.8231 32.6548C37.516 32.5257 37.2726 32.2774 37.1484 31.9687C36.4101 30.2029 34.5284 29.2016 32.6515 29.5773C30.7746 29.9546 29.4237 31.6012 29.4221 33.5156C29.4482 34.7554 30.0379 35.9152 31.0212 36.6682C32.0046 37.4229 33.277 37.6891 34.4809 37.3918C35.1457 37.2089 35.8334 37.5944 36.0229 38.2576C36.214 38.9207 35.8334 39.6134 35.1735 39.8094C33.545 40.2553 31.8086 40.056 30.3236 39.2507C28.8404 38.4454 27.7264 37.0978 27.2135 35.4905C26.7006 33.8815 26.8296 32.137 27.5745 30.6226C28.3193 29.1067 29.6212 27.9388 31.2073 27.3622C32.7934 26.7856 34.5412 26.8444 36.0848 27.5272C37.6284 28.2083 38.8486 29.4628 39.4889 31.0244C39.7421 31.6713 39.4288 32.3999 38.7852 32.6597ZM48.7773 24.2031C48.4114 23.6216 47.6453 23.4419 47.0572 23.7996C46.4708 24.1557 46.2781 24.9185 46.626 25.5115C47.7695 27.3867 48.4964 29.4857 48.7528 31.6665C49.723 32.0373 50.6149 32.5878 51.3827 33.2902C51.3386 30.0837 50.4385 26.9454 48.7773 24.2031ZM45.2408 17.8097C44.5744 17.8081 44.0223 18.3275 43.9831 18.9923C28.2922 7.86824 8.14154 25.361 18.0697 42.7902C18.4241 43.3766 19.1821 43.571 19.775 43.2296C20.368 42.8866 20.5787 42.1319 20.2471 41.5325C17.8051 37.5092 17.3329 32.5891 18.9648 28.1741C20.5967 23.7591 24.1559 20.3301 28.6299 18.8632C33.1022 17.3947 38.001 18.0514 41.9314 20.642C41.4724 20.9491 41.2666 21.5192 41.4217 22.0485C41.5785 22.5777 42.0588 22.9469 42.6109 22.9567H45.2408C45.5838 22.955 45.9105 22.8146 46.1474 22.5679C46.3663 22.3409 46.492 22.0387 46.5002 21.7234V19.069C46.4969 18.3748 45.935 17.813 45.2408 17.8097ZM41.0378 46.9443C38.5648 48.367 35.7422 49.0677 32.8919 48.9698C30.0415 48.8718 27.2743 47.9783 24.9041 46.3905C25.3794 46.0949 25.6049 45.5215 25.4562 44.9808C25.3076 44.4401 24.8224 44.0612 24.2621 44.0497H21.6322C21.2843 44.0481 20.9511 44.1902 20.7126 44.4434C20.4741 44.6966 20.3516 45.0364 20.3729 45.3843V47.939C20.3794 48.6071 20.9103 49.1527 21.5783 49.1805C22.2464 49.2066 22.8181 48.7052 22.877 48.0387C25.9413 50.2912 29.6446 51.5049 33.447 51.5C37.2497 51.4951 40.9493 50.2732 44.0074 48.0142C42.962 47.8394 41.9542 47.4784 41.0378 46.9443ZM39.4011 39.5824C39.6396 47.5995 51.3059 47.6748 51.5706 39.5824C51.3207 31.5783 39.6788 31.5034 39.4011 39.5824ZM48.7643 39.0417L45.8829 41.9232C45.3912 42.4083 44.6006 42.4083 44.1089 41.9232L42.2092 40.0234C41.7306 39.5301 41.7355 38.746 42.219 38.2576C42.7025 37.7708 43.4865 37.7611 43.9831 38.2364L44.9893 39.2557L46.9903 37.2547C47.4869 36.781 48.271 36.7907 48.7545 37.2775C49.238 37.7643 49.2429 38.5484 48.7643 39.0417Z" fill="white"/>
</svg>
