<svg width="67" height="67" viewBox="0 0 67 67" fill="none" xmlns="http://www.w3.org/2000/svg">
<rect width="67" height="67" rx="33.5" fill="#6864ED"/>
<path d="M17.9218 42.5001C18.4614 43.4001 19.4072 43.9397 20.3968 43.9397C20.8925 43.9397 21.3864 43.8044 21.7925 43.5354C22.9632 42.8604 23.5029 41.4208 23.0968 40.1604L25.8425 38.5854C25.7529 38.4061 25.6175 38.2251 25.5279 38.0897C25.5279 38.0897 25.5279 38.044 25.4822 38.044C25.3925 37.9086 25.3029 37.7293 25.2572 37.594L22.5114 39.169C22.1511 38.7647 21.6572 38.4483 21.1157 38.3147C20.395 38.1354 19.6304 38.2251 18.9554 38.5854C18.2804 38.9897 17.8304 39.5751 17.6054 40.2958C17.4278 41.0604 17.5175 41.8251 17.9218 42.5001Z" fill="white"/>
<path d="M34.0781 25.5791V28.6395H36.7324C36.0574 27.0205 35.1574 25.8955 34.0781 25.5791Z" fill="white"/>
<path d="M37.9467 28.5958H39.8363C39.026 27.5166 37.901 26.6605 36.6406 26.1208C37.182 26.7958 37.6321 27.6501 37.9467 28.5958Z" fill="white"/>
<path d="M40.6028 29.7646H38.3071C38.5321 30.7104 38.7114 31.7896 38.7114 32.9146H41.4571C41.4132 31.7896 41.0968 30.7104 40.6028 29.7646Z" fill="white"/>
<path d="M38.3071 37.2354H40.6028C41.0986 36.2897 41.4132 35.2104 41.5028 34.0854H38.7571C38.7132 35.2104 38.5778 36.2458 38.3071 37.2354Z" fill="white"/>
<path d="M39.8385 38.4041H37.9488C37.5885 39.3937 37.1385 40.2041 36.6445 40.8791C37.9471 40.3394 39.0281 39.4851 39.8385 38.4041Z" fill="white"/>
<path d="M34.0781 38.4041V41.4644C35.1574 41.1498 36.1031 40.0248 36.7324 38.4041H34.0781Z" fill="white"/>
<path d="M32.9072 41.421V38.3606H30.2529C30.9279 39.9796 31.8279 41.1502 32.9072 41.421Z" fill="white"/>
<path d="M29.8927 37.2354H32.9073V34.0854H29.397C29.4427 35.2104 29.622 36.2897 29.8927 37.2354Z" fill="white"/>
<path d="M34.0779 37.2354H37.0926C37.3633 36.2897 37.4969 35.2104 37.5426 34.0854H34.0322V37.2354H34.0779Z" fill="white"/>
<path d="M37.0928 29.7646H34.0781V32.9146H37.5885C37.5428 31.7896 37.3635 30.7104 37.0928 29.7646Z" fill="white"/>
<path d="M32.9075 29.7646H29.8929C29.6222 30.7104 29.4886 31.7896 29.4429 32.9146H32.9532V29.7646H32.9075Z" fill="white"/>
<path d="M32.9072 28.596V25.5356C31.8279 25.8503 30.8822 26.9753 30.2529 28.596H32.9072Z" fill="white"/>
<path d="M27.147 28.5958H29.0367C29.397 27.6062 29.847 26.7958 30.3409 26.1208C29.0384 26.6605 27.9574 27.5148 27.147 28.5958Z" fill="white"/>
<path d="M28.2279 32.9146C28.2736 31.7896 28.4072 30.7543 28.6322 29.7646H26.3365C25.8408 30.7104 25.5262 31.7896 25.4365 32.9146H28.2279Z" fill="white"/>
<path d="M26.3821 37.2354H28.6778C28.4528 36.2458 28.2736 35.2104 28.2736 34.0854H25.5278C25.5718 35.2104 25.8882 36.2897 26.3821 37.2354Z" fill="white"/>
<path d="M29.0386 38.4041H27.1489C27.9593 39.4833 29.0843 40.3394 30.3446 40.8791C29.8032 40.2041 29.3532 39.3498 29.0386 38.4041Z" fill="white"/>
<path d="M24.4468 42.7708C24.1761 42.5915 23.8176 42.7251 23.6365 42.9958C23.4572 43.2665 23.5908 43.625 23.8615 43.8061L29.351 47.0018C29.4407 47.0475 29.5303 47.0915 29.6217 47.0915C29.801 47.0915 30.026 47.0018 30.1174 46.8208C30.2967 46.5501 30.1632 46.1915 29.8924 46.0104L24.4468 42.7708Z" fill="white"/>
<path d="M47.1717 36.6959V30.3046C47.1717 29.9899 46.901 29.7192 46.5863 29.7192C46.2717 29.7192 46.001 29.9899 46.001 30.3046V36.6505C46.001 36.9651 46.2717 37.2359 46.5863 37.2359C46.9027 37.2359 47.1717 37.0106 47.1717 36.6959Z" fill="white"/>
<path d="M29.397 20.0459L23.9074 23.2416C23.6367 23.4209 23.5471 23.7373 23.6824 24.052C23.7721 24.2313 23.9971 24.3227 24.1782 24.3227C24.2678 24.3227 24.3575 24.277 24.4489 24.233L29.9384 21.0373C30.2091 20.858 30.2988 20.5416 30.1634 20.227C30.0281 20.0002 29.6677 19.8649 29.397 20.0459Z" fill="white"/>
<path d="M19.8135 30.3041V36.65C19.8135 36.9647 20.0842 37.2354 20.3988 37.2354C20.7135 37.2354 20.9842 36.9647 20.9842 36.65L20.9824 30.3041C20.9824 29.9895 20.7117 29.7188 20.3971 29.7188C20.0824 29.7205 19.8135 29.9895 19.8135 30.3041Z" fill="white"/>
<path d="M42.5385 24.2291C42.6282 24.2748 42.7178 24.3188 42.8092 24.3188C42.9885 24.3188 43.2135 24.2291 43.3049 24.0481C43.4842 23.7774 43.3506 23.4188 43.0799 23.2377L37.5904 20.042C37.3197 19.8627 36.9611 19.9963 36.78 20.267C36.6007 20.5377 36.7343 20.8963 37.005 21.0774L42.5385 24.2291Z" fill="white"/>
<path d="M37.3178 47.0459C37.4074 47.0459 37.4971 47.0002 37.5885 46.9562L43.078 43.7605C43.3488 43.5812 43.4384 43.2648 43.303 42.9502C43.1238 42.6795 42.8073 42.5898 42.4927 42.7252L37.0031 45.9209C36.7324 46.1002 36.6428 46.4166 36.7781 46.7312C36.9135 46.9105 37.0928 47.0459 37.3178 47.0459Z" fill="white"/>
<path d="M33.4926 15.5C31.9176 15.5 30.6572 16.8043 30.6572 18.3354C30.6572 19.7311 31.6469 20.8561 32.9072 21.125V24.3207C33.0865 24.3207 33.3115 24.275 33.4926 24.275C33.6719 24.275 33.8969 24.275 34.0779 24.3207V21.125C35.3822 20.8543 36.3279 19.6854 36.3279 18.3354C36.3279 16.8043 35.0676 15.5 33.4926 15.5Z" fill="white"/>
<path d="M17.9216 24.4999C17.5613 25.1749 17.4259 25.9395 17.6509 26.6602C17.8302 27.381 18.3259 28.0102 19.0009 28.3706C19.4509 28.6413 19.9466 28.7749 20.4406 28.7749C20.7113 28.7749 20.9363 28.7292 21.2052 28.6853C21.7448 28.5499 22.2406 28.2353 22.6009 27.831L25.3466 29.406C25.4363 29.2706 25.482 29.0913 25.5716 28.956C25.5716 28.956 25.5716 28.9103 25.6173 28.9103C25.707 28.731 25.8423 28.5499 25.932 28.4146L23.1863 26.8396C23.5906 25.5792 23.0966 24.1853 21.882 23.4646C20.4424 22.6542 18.688 23.1499 17.9216 24.4999Z" fill="white"/>
<path d="M33.4926 51.4999C35.0676 51.4999 36.3279 50.2396 36.3279 48.6646C36.3279 47.2688 35.3383 46.1438 34.0779 45.8749V42.6792C33.8986 42.6792 33.6736 42.7249 33.4926 42.7249C33.3133 42.7249 33.0883 42.7249 32.9072 42.6792V45.8749C31.6029 46.1456 30.6572 47.2706 30.6572 48.6646C30.6572 50.2396 31.9176 51.4999 33.4926 51.4999Z" fill="white"/>
<path d="M45.1929 43.5354C45.6429 43.8061 46.1386 43.9397 46.5886 43.9397C47.5783 43.9397 48.524 43.444 49.0636 42.5001C49.424 41.8251 49.5593 41.0604 49.3343 40.3397C49.155 39.619 48.6593 38.9897 47.9843 38.6294C47.3093 38.269 46.5447 38.1336 45.824 38.3587C45.2843 38.494 44.7886 38.8087 44.4282 39.2129L41.6825 37.6379C41.5929 37.7733 41.5472 37.9526 41.4575 38.0879C41.4575 38.0879 41.4575 38.1336 41.4118 38.1336C41.3222 38.3129 41.1868 38.494 41.0972 38.6294L43.8429 40.2044C43.4825 41.4208 43.9782 42.8604 45.1929 43.5354Z" fill="white"/>
<path d="M49.0637 24.4999C48.2534 23.1499 46.543 22.6542 45.1491 23.4646C43.9784 24.1396 43.4387 25.5792 43.8448 26.8396L41.1431 28.4146C41.2327 28.5939 41.3681 28.7749 41.4577 28.9103C41.4577 28.9103 41.4577 28.956 41.5034 28.956C41.5931 29.0913 41.6827 29.2267 41.7284 29.406L44.4741 27.831C44.8345 28.2353 45.3284 28.5517 45.8699 28.6853C46.0949 28.7749 46.3656 28.7749 46.6345 28.7749C47.1302 28.7749 47.6241 28.6396 48.0741 28.3706C48.7491 28.0103 49.1991 27.381 49.4241 26.6602C49.5577 25.9395 49.468 25.1749 49.0637 24.4999Z" fill="white"/>
</svg>
