<svg width="67" height="67" viewBox="0 0 67 67" fill="none" xmlns="http://www.w3.org/2000/svg">
<rect width="67" height="67" rx="33.5" fill="#AB64ED"/>
<path d="M28.895 18.5H23.03C20 18.5 18.5 20 18.5 23.03V28.91C18.5 32 20 33.5 23.03 33.425H28.91C32 33.5 33.5 32 33.425 28.895V23.03C33.5 20 32 18.5 28.895 18.5ZM29.015 30.14C27.995 30.14 27.005 29.75 26.18 29.06C25.25 29.735 24.125 30.14 22.91 30.14C22.295 30.14 21.785 29.63 21.785 29.015C21.785 28.4 22.295 27.89 22.91 27.89C24.44 27.89 25.715 26.84 26.18 25.4H22.91C22.295 25.4 21.785 24.89 21.785 24.275C21.785 23.66 22.295 23.15 22.91 23.15H24.845C24.905 22.58 25.37 22.13 25.955 22.13C26.54 22.13 27.005 22.58 27.065 23.15H27.455C27.47 23.15 27.485 23.15 27.485 23.15H27.515H29C29.615 23.15 30.125 23.66 30.125 24.275C30.125 24.89 29.63 25.4 29 25.4H28.505C28.37 26.12 28.085 26.795 27.71 27.41C28.115 27.71 28.55 27.89 29.015 27.89C29.63 27.89 30.14 28.4 30.14 29.015C30.14 29.63 29.63 30.14 29.015 30.14Z" fill="white"/>
<path d="M29 49.625C22.595 49.625 17.375 44.405 17.375 38C17.375 37.385 17.885 36.875 18.5 36.875C19.115 36.875 19.625 37.385 19.625 38C19.625 42.44 22.715 46.16 26.87 47.135L26.465 46.46C26.15 45.92 26.315 45.23 26.855 44.915C27.38 44.6 28.085 44.765 28.4 45.305L29.975 47.93C30.185 48.275 30.185 48.71 29.99 49.055C29.78 49.4 29.405 49.625 29 49.625Z" fill="white"/>
<path d="M48.5001 30.125C47.8851 30.125 47.3751 29.615 47.3751 29C47.3751 24.56 44.2851 20.84 40.1301 19.865L40.5352 20.54C40.8502 21.08 40.6851 21.77 40.1451 22.085C39.6201 22.4 38.9151 22.235 38.6001 21.695L37.0251 19.07C36.8151 18.725 36.8151 18.29 37.0101 17.945C37.2201 17.6 37.5951 17.375 38.0001 17.375C44.4051 17.375 49.6251 22.595 49.6251 29C49.6251 29.615 49.1151 30.125 48.5001 30.125Z" fill="white"/>
<path d="M40.8798 33.2749C36.6798 33.2749 33.2598 36.6799 33.2598 40.8949C33.2598 45.0949 36.6648 48.5149 40.8798 48.5149C45.0798 48.5149 48.4998 45.1099 48.4998 40.8949C48.4998 36.6799 45.0948 33.2749 40.8798 33.2749ZM44.5998 44.5099C44.0448 44.7799 43.3698 44.5699 43.0848 43.9999L42.8298 43.4899H38.9448L38.6898 43.9999C38.4948 44.3899 38.0898 44.6149 37.6848 44.6149C37.5198 44.6149 37.3398 44.5699 37.1898 44.4949C36.6348 44.2099 36.4098 43.5349 36.6798 42.9799L39.8898 36.5749C40.0848 36.1999 40.4748 35.9599 40.8948 35.9599C41.3148 35.9599 41.7048 36.1999 41.8998 36.5899L45.1098 42.9949C45.3798 43.5499 45.1548 44.2249 44.5998 44.5099Z" fill="white"/>
<path d="M40.0698 41.24H41.7048L40.8798 39.605L40.0698 41.24Z" fill="white"/>
</svg>
