<svg width="60" height="60" viewBox="0 0 60 60" fill="none" xmlns="http://www.w3.org/2000/svg">
<path d="M50.525 19.5501L31.275 30.7001C30.5 31.1501 29.525 31.1501 28.725 30.7001L9.47499 19.5501C8.09999 18.7501 7.74999 16.8751 8.79999 15.7001C9.52499 14.8751 10.35 14.2001 11.225 13.7251L24.775 6.2251C27.675 4.6001 32.375 4.6001 35.275 6.2251L48.825 13.7251C49.7 14.2001 50.525 14.9001 51.25 15.7001C52.25 16.8751 51.9 18.7501 50.525 19.5501Z" fill="white"/>
<path d="M28.575 35.3502V52.4002C28.575 54.3002 26.65 55.5502 24.95 54.7252C19.8 52.2002 11.125 47.4752 11.125 47.4752C8.07501 45.7502 5.57501 41.4002 5.57501 37.8252V24.9252C5.57501 22.9502 7.65001 21.7002 9.35001 22.6752L27.325 33.1002C28.075 33.5752 28.575 34.4252 28.575 35.3502Z" fill="white"/>
<path d="M31.425 35.3502V52.4002C31.425 54.3002 33.35 55.5502 35.05 54.7252C40.2 52.2002 48.875 47.4752 48.875 47.4752C51.925 45.7502 54.425 41.4002 54.425 37.8252V24.9252C54.425 22.9502 52.35 21.7002 50.65 22.6752L32.675 33.1002C31.925 33.5752 31.425 34.4252 31.425 35.3502Z" fill="white"/>
</svg>
