<svg width="268" height="25" viewBox="0 0 268 25" fill="none" xmlns="http://www.w3.org/2000/svg">
<g clip-path="url(#clip0_39_5787)">
<path d="M22.0234 11.4688C22.0234 11.4688 22.3516 13.2031 22.4453 13.5781H20.8984C21.0391 13.1562 21.6484 11.5156 21.6484 11.5156C21.6016 11.5625 21.7891 11.0938 21.8828 10.8125L22.0234 11.4688ZM26.9922 4.34375V20.8438C26.9922 22.1094 25.9609 23.0938 24.7422 23.0938H2.24219C0.976562 23.0938 -0.0078125 22.1094 -0.0078125 20.8438V4.34375C-0.0078125 3.125 0.976562 2.09375 2.24219 2.09375H24.7422C25.9609 2.09375 26.9922 3.125 26.9922 4.34375ZM7.11719 16.1562L10.0703 8.84375H8.10156L6.22656 13.8125L6.03906 12.8281L5.38281 9.5C5.28906 9.03125 4.96094 8.89062 4.53906 8.84375H1.49219V9.03125C2.19531 9.21875 2.85156 9.45312 3.46094 9.82812L5.14844 16.1562H7.11719ZM11.5234 16.1562L12.7422 8.84375H10.8203L9.64844 16.1562H11.5234ZM18.0859 13.7656C18.1328 12.9219 17.6172 12.3125 16.5391 11.7969C15.8828 11.4688 15.4609 11.2344 15.4609 10.9062C15.4609 10.5781 15.7891 10.25 16.5391 10.25C17.1484 10.25 17.6172 10.3906 17.9453 10.5312L18.1328 10.625L18.3672 9.03125C17.9922 8.89062 17.4297 8.75 16.6797 8.75C14.8047 8.75 13.4922 9.73438 13.4922 11.1406C13.4922 12.1719 14.4297 12.7812 15.1328 13.1094C15.8828 13.4844 16.1172 13.7188 16.1172 14C16.1172 14.5156 15.5547 14.75 14.9922 14.75C14.2422 14.75 13.8672 14.6094 13.2109 14.3281L12.9766 14.2344L12.7422 15.875C13.1641 16.0625 13.9609 16.25 14.8047 16.25C16.8203 16.25 18.0859 15.2656 18.0859 13.7656ZM24.7422 16.1562L23.1953 8.84375H21.7422C21.2734 8.84375 20.9453 8.98438 20.7578 9.45312L17.9453 16.1562H19.9609C19.9609 16.1562 20.2422 15.2656 20.3359 15.0781H22.7734C22.8203 15.3125 22.9609 16.1562 22.9609 16.1562H24.7422Z" fill="white"/>
<path d="M59.7109 12.7344C59.7109 13.2969 59.2422 13.7188 58.6797 13.7188C58.2578 13.7188 57.9297 13.4844 57.9297 13.0156C57.9297 12.4531 58.3516 11.9844 58.9609 11.9844C59.3828 11.9844 59.7109 12.2656 59.7109 12.7344ZM54.7422 10.4375C55.2578 10.4375 55.6797 10.5312 55.5859 11.1406C55.4922 11.75 55.0703 11.7969 54.5547 11.7969L54.1797 11.8438L54.3672 10.5781C54.3672 10.4844 54.4609 10.4375 54.5078 10.4375H54.7422ZM68.0547 10.4375C68.4766 10.4375 68.8984 10.4844 68.8984 10.9531C68.8984 11.6562 68.4766 11.7969 67.8672 11.7969L67.4922 11.8438L67.6797 10.5781C67.7266 10.4844 67.7734 10.4375 67.8672 10.4375H68.0547ZM77.9922 4.34375V20.8438C77.9922 22.1094 76.9609 23.0938 75.7422 23.0938H53.2422C51.9766 23.0938 50.9922 22.1094 50.9922 20.8438V4.34375C50.9922 3.125 51.9766 2.09375 53.2422 2.09375H75.7422C76.9609 2.09375 77.9922 3.125 77.9922 4.34375ZM56.9922 10.7188C56.9922 9.73438 56.2422 9.40625 55.3516 9.40625H53.4766C53.3828 9.40625 53.2422 9.5 53.2422 9.64062L52.4922 14.4219C52.4453 14.5156 52.5391 14.6094 52.6328 14.6094H53.5234C53.6172 14.6094 53.7578 14.4688 53.7578 14.3281L53.9922 13.0625C54.0391 12.7344 54.6016 12.875 54.8359 12.875C56.1484 12.875 56.9922 12.0781 56.9922 10.7188ZM60.9297 11.1406H60.0391C59.8516 11.1406 59.8516 11.375 59.8516 11.5156C59.5703 11.0938 59.1953 11.0469 58.7266 11.0469C57.6016 11.0469 56.7109 12.0312 56.7109 13.1562C56.7109 14.0938 57.2734 14.6562 58.2109 14.6562C58.6328 14.6562 59.1484 14.4219 59.4297 14.0938C59.4297 14.1875 59.3828 14.3281 59.3828 14.4219C59.3828 14.5156 59.4297 14.6094 59.5234 14.6094H60.3672C60.4609 14.6094 60.6016 14.4688 60.6016 14.3281L61.0703 11.3281C61.1172 11.2344 61.0234 11.1406 60.9297 11.1406ZM62.8516 15.7344L65.8047 11.375C65.8516 11.3281 65.8516 11.3281 65.8516 11.2812C65.8516 11.2344 65.7578 11.1406 65.7109 11.1406H64.7734C64.7266 11.1406 64.6328 11.1875 64.5859 11.2344L63.3203 13.0625L62.8047 11.3281C62.8047 11.2344 62.6641 11.1406 62.5703 11.1406H61.6797C61.5859 11.1406 61.5391 11.2344 61.5391 11.2812C61.5391 11.3281 62.4297 13.9531 62.5234 14.1875C62.3828 14.375 61.5859 15.5469 61.5859 15.6875C61.5859 15.7812 61.6328 15.8281 61.7266 15.8281H62.6172C62.7109 15.8281 62.8047 15.7812 62.8516 15.7344ZM70.3047 10.7188C70.3047 9.73438 69.5547 9.40625 68.6641 9.40625H66.7891C66.6953 9.40625 66.5547 9.5 66.5547 9.64062L65.8047 14.4219C65.8047 14.5156 65.8516 14.6094 65.9453 14.6094H66.8828C66.9766 14.6094 67.0703 14.5156 67.0703 14.4219L67.3047 13.0625C67.3516 12.7344 67.9141 12.875 68.1484 12.875C69.4609 12.875 70.3047 12.0781 70.3047 10.7188ZM74.2422 11.1406H73.3516C73.1641 11.1406 73.1641 11.375 73.1641 11.5156C72.8828 11.0938 72.5078 11.0469 72.0391 11.0469C70.9141 11.0469 70.0234 12.0312 70.0234 13.1562C70.0234 14.0938 70.5859 14.6562 71.5234 14.6562C71.9453 14.6562 72.4609 14.4219 72.7422 14.0938C72.7422 14.1875 72.6953 14.3281 72.6953 14.4219C72.6953 14.5156 72.7422 14.6094 72.8359 14.6094H73.6797C73.7734 14.6094 73.9141 14.4688 73.9141 14.3281L74.3828 11.3281C74.4297 11.2344 74.3359 11.1406 74.2422 11.1406ZM76.4922 9.54688C76.4922 9.45312 76.3984 9.40625 76.3047 9.40625H75.4609C75.3672 9.40625 75.3203 9.45312 75.3203 9.54688L74.5234 14.4219C74.5234 14.5156 74.6172 14.6094 74.7109 14.6094H75.4609C75.6016 14.6094 75.6953 14.4688 75.6953 14.3281L76.4922 9.59375V9.54688ZM72.2734 11.9844C72.6953 11.9844 73.0234 12.2656 73.0234 12.7344C73.0234 13.2969 72.5547 13.7188 71.9922 13.7188C71.5703 13.7188 71.2422 13.4844 71.2422 13.0156C71.2422 12.4531 71.6641 11.9844 72.2734 11.9844Z" fill="white"/>
<path d="M124.586 19.8594C124.586 20.1875 124.398 20.375 124.07 20.375C123.742 20.375 123.555 20.1406 123.555 19.8594C123.555 19.5312 123.742 19.2969 124.07 19.2969C124.398 19.2969 124.586 19.5312 124.586 19.8594ZM110.055 19.2969C110.336 19.2969 110.523 19.5312 110.57 19.8594C110.57 20.1875 110.336 20.375 110.055 20.375C109.727 20.375 109.492 20.1406 109.492 19.8594C109.492 19.5312 109.727 19.2969 110.055 19.2969ZM115.539 19.2969C115.773 19.2969 115.961 19.4375 116.008 19.6719H115.117C115.117 19.4375 115.305 19.2969 115.539 19.2969ZM120.602 19.2969C120.93 19.2969 121.117 19.5312 121.117 19.8594C121.117 20.1875 120.93 20.375 120.602 20.375C120.273 20.375 120.086 20.1406 120.086 19.8594C120.086 19.5312 120.273 19.2969 120.602 19.2969ZM125.57 20.5156V20.5625C125.57 20.6094 125.57 20.6094 125.57 20.6094C125.57 20.6562 125.57 20.6562 125.523 20.6562C125.523 20.6562 125.523 20.7031 125.477 20.7031C125.477 20.7031 125.477 20.7031 125.43 20.7031C125.43 20.7031 125.43 20.7031 125.383 20.7031C125.383 20.7031 125.383 20.6562 125.336 20.6562C125.336 20.6562 125.336 20.6562 125.336 20.6094C125.289 20.6094 125.289 20.6094 125.289 20.5625C125.289 20.5625 125.289 20.5156 125.336 20.5156V20.4688C125.383 20.4688 125.383 20.4688 125.383 20.4688C125.43 20.4219 125.43 20.4219 125.43 20.4219C125.477 20.4219 125.477 20.4219 125.477 20.4688C125.523 20.4688 125.523 20.4688 125.523 20.4688C125.57 20.4688 125.57 20.5156 125.57 20.5156ZM125.477 20.6094V20.5625C125.523 20.5625 125.523 20.5625 125.523 20.5156C125.523 20.5156 125.523 20.5156 125.477 20.5156C125.477 20.5156 125.477 20.4688 125.43 20.4688H125.383V20.6562H125.43V20.5625L125.477 20.6562H125.523L125.477 20.6094ZM128.992 4.39062V20.8906C128.992 22.1562 127.961 23.1406 126.742 23.1406H104.242C102.977 23.1406 101.992 22.1562 101.992 20.8906V4.39062C101.992 3.17188 102.977 2.14062 104.242 2.14062H126.742C127.961 2.14062 128.992 3.17188 128.992 4.39062ZM104.992 10.9531C104.992 14.5625 107.898 17.4688 111.461 17.4688C112.727 17.4688 113.992 17.0469 115.07 16.3438C111.648 13.5781 111.648 8.32812 115.07 5.5625C113.992 4.85938 112.727 4.48438 111.461 4.48438C107.898 4.48438 104.992 7.39062 104.992 10.9531ZM115.492 16.0625C118.773 13.4844 118.773 8.46875 115.492 5.84375C112.164 8.46875 112.164 13.4844 115.492 16.0625ZM108.789 19.625C108.789 19.2031 108.555 18.9688 108.133 18.9219C107.898 18.9219 107.664 19.0156 107.523 19.25C107.383 19.0625 107.195 18.9219 106.961 18.9219C106.773 18.9219 106.586 19.0156 106.445 19.2031V18.9688H106.07V20.7031H106.445C106.445 19.8125 106.305 19.2969 106.867 19.2969C107.336 19.2969 107.242 19.7656 107.242 20.7031H107.617C107.617 19.8594 107.523 19.2969 108.039 19.2969C108.508 19.2969 108.414 19.7656 108.414 20.7031H108.789V19.625ZM110.898 18.9688H110.523V19.2031C110.43 19.0625 110.242 18.9219 110.008 18.9219C109.492 18.9219 109.117 19.3438 109.117 19.8594C109.117 20.375 109.492 20.75 110.008 20.75C110.242 20.75 110.43 20.6562 110.523 20.5156V20.7031H110.898V18.9688ZM112.82 20.1875C112.82 19.4844 111.742 19.8125 111.742 19.4844C111.742 19.2031 112.305 19.25 112.586 19.4375L112.773 19.1094C112.305 18.8281 111.32 18.8281 111.32 19.4844C111.32 20.1875 112.398 19.9062 112.398 20.1875C112.398 20.5156 111.789 20.4688 111.461 20.2344L111.273 20.5625C111.789 20.8906 112.82 20.8438 112.82 20.1875ZM114.461 20.6094L114.367 20.3281C114.18 20.4219 113.805 20.5156 113.805 20.0938V19.3438H114.414V18.9688H113.805V18.4531H113.383V18.9688H113.055V19.3438H113.383V20.0938C113.383 20.9375 114.227 20.7969 114.461 20.6094ZM115.07 20H116.383C116.383 19.25 116.008 18.9219 115.539 18.9219C115.07 18.9219 114.695 19.2969 114.695 19.8594C114.695 20.7969 115.773 20.9844 116.289 20.5156L116.102 20.2344C115.727 20.5156 115.211 20.5156 115.07 20ZM117.836 18.9688C117.648 18.875 117.32 18.9219 117.133 19.2031V18.9688H116.758V20.7031H117.133V19.7188C117.133 19.2031 117.602 19.25 117.742 19.3438L117.836 18.9688ZM118.352 19.8594C118.352 19.2969 118.914 19.1562 119.336 19.4375L119.523 19.1562C118.961 18.7344 117.977 18.9688 117.977 19.8594C117.977 20.7969 119.008 20.9844 119.523 20.5625L119.336 20.2344C118.914 20.5625 118.352 20.375 118.352 19.8594ZM121.492 18.9688H121.117V19.2031C120.695 18.6875 119.711 18.9688 119.711 19.8594C119.711 20.75 120.742 20.9844 121.117 20.5156V20.7031H121.492V18.9688ZM123.039 18.9688C122.945 18.9219 122.523 18.875 122.336 19.2031V18.9688H121.961V20.7031H122.336V19.7188C122.336 19.2031 122.758 19.25 122.945 19.3438L123.039 18.9688ZM124.961 18.3125H124.586V19.2031C124.211 18.6875 123.18 18.9688 123.18 19.8594C123.18 20.75 124.211 20.9844 124.586 20.5156V20.7031H124.961V18.3125ZM125.289 14.75V14.9844H125.336V14.75H125.43H125.195H125.289ZM125.617 20.5625V20.5156C125.57 20.4688 125.57 20.4688 125.57 20.4688C125.57 20.4219 125.523 20.4219 125.523 20.4219C125.477 20.4219 125.477 20.375 125.43 20.375L125.383 20.4219C125.336 20.4219 125.336 20.4219 125.336 20.4688C125.289 20.4688 125.289 20.4688 125.289 20.5156V20.5625C125.289 20.6094 125.289 20.6094 125.289 20.6562C125.289 20.6562 125.289 20.6562 125.336 20.7031C125.336 20.7031 125.336 20.7031 125.383 20.75H125.43C125.477 20.75 125.477 20.75 125.523 20.75C125.523 20.7031 125.57 20.7031 125.57 20.7031C125.57 20.6562 125.57 20.6562 125.617 20.6562C125.617 20.6094 125.617 20.6094 125.617 20.5625ZM125.758 14.75H125.711L125.617 14.8906L125.57 14.75H125.477V14.9844H125.523V14.7969L125.617 14.9375H125.664L125.711 14.7969V14.9844H125.758V14.75ZM125.992 10.9531C125.992 7.39062 123.039 4.48438 119.477 4.48438C118.211 4.48438 116.945 4.85938 115.914 5.5625C119.289 8.32812 119.336 13.5781 115.914 16.3438C116.945 17.0469 118.211 17.4219 119.477 17.4219C123.039 17.4688 125.992 14.5625 125.992 10.9531Z" fill="white"/>
<path d="M167.148 10.8594C167.148 11.6562 166.633 12.125 165.789 12.125H164.617V9.59375H165.789C166.633 9.59375 167.148 10.0625 167.148 10.8594ZM169.352 13.7656C169.352 13.3906 169.68 13.1562 170.289 13.1094L171.414 13.0625V13.3906C171.414 14 170.898 14.4219 170.242 14.4219C169.68 14.4219 169.352 14.1875 169.352 13.7656ZM179.992 4.29688V20.7969C179.992 22.0625 178.961 23.0469 177.742 23.0469H155.242C153.977 23.0469 152.992 22.0625 152.992 20.7969V4.29688C152.992 3.07812 153.977 2.04688 155.242 2.04688H177.742C178.961 2.04688 179.992 3.07812 179.992 4.29688ZM158.945 9.875C159.367 9.875 159.742 9.64062 159.977 9.35938C160.258 9.07812 160.398 8.65625 160.352 8.28125C160.023 8.28125 159.602 8.46875 159.32 8.79688C159.086 9.03125 158.898 9.45312 158.945 9.875ZM161.805 13.3438C161.805 13.3438 160.867 13.0156 160.867 11.9375C160.867 11.0469 161.57 10.625 161.617 10.625C161.195 10.0156 160.586 9.96875 160.352 9.92188C159.789 9.92188 159.273 10.25 159.039 10.25C158.758 10.25 158.336 9.96875 157.867 9.96875C157.305 9.96875 156.742 10.2969 156.461 10.8125C155.852 11.8906 156.273 13.4375 156.883 14.3281C157.164 14.75 157.539 15.2188 158.008 15.1719C158.43 15.1719 158.617 14.8906 159.133 14.8906C159.648 14.8906 159.789 15.1719 160.258 15.1719C160.727 15.1719 161.055 14.75 161.336 14.3281C161.664 13.8594 161.805 13.3906 161.805 13.3438ZM168.133 10.8594C168.133 9.59375 167.289 8.75 166.023 8.75H163.633V15.125H164.617V12.9688H166.023C167.289 12.9688 168.133 12.0781 168.133 10.8594ZM172.352 11.9375C172.352 11.0469 171.648 10.4375 170.477 10.4375C169.445 10.4375 168.648 11.0469 168.648 11.8906H169.539C169.586 11.4688 169.961 11.2344 170.477 11.2344C171.086 11.2344 171.414 11.5156 171.414 12.0312V12.3594L170.195 12.4531C169.023 12.5 168.414 13.0156 168.414 13.8125C168.414 14.6562 169.023 15.1719 169.961 15.1719C170.57 15.1719 171.18 14.8906 171.414 14.375H171.461V15.125H172.352V11.9375ZM177.18 10.4844H176.148L174.977 14.2812L173.805 10.4844H172.773L174.414 15.1719L174.367 15.4531C174.18 15.9219 173.945 16.1094 173.523 16.1094C173.43 16.1094 173.289 16.1094 173.195 16.1094V16.8594C173.289 16.8594 173.523 16.8594 173.617 16.8594C174.555 16.8594 175.023 16.5312 175.398 15.4062L177.18 10.4844Z" fill="white"/>
<path d="M219.227 8.46875C219.227 8.84375 218.992 9.21875 218.664 9.35938C219.086 9.5 219.18 9.78125 219.18 10.2031V10.8594H218.383C218.383 10.1562 218.57 9.6875 217.727 9.6875H216.883V10.8594H216.086V7.625H217.914C218.57 7.625 219.227 7.71875 219.227 8.46875ZM217.82 9.03125C218.102 9.03125 218.336 8.9375 218.336 8.65625C218.336 8.32812 218.102 8.28125 217.867 8.28125H216.883V9.03125H217.82ZM217.07 13.2031C217.773 13.2031 218.336 13.4375 218.336 14.2812C218.336 15.5938 216.93 15.3594 216.039 15.3594V16.4375H214.539L213.555 15.3594L212.57 16.4375H209.523V13.2031H212.617L213.602 14.2812L214.586 13.2031H217.07ZM212.195 15.7812L213.086 14.8438L212.242 13.8594H210.273V14.4688H211.961V15.125H210.273V15.7812H212.195ZM215.289 16.1562V13.5312L214.07 14.8438L215.289 16.1562ZM217.023 14.7031C217.305 14.7031 217.539 14.5625 217.539 14.2812C217.539 14 217.305 13.8594 217.07 13.8594H216.039V14.7031H217.023ZM215.57 8.28125H213.742V8.89062H215.523V9.54688H213.742V10.2031H215.57V10.8594H212.945V7.625H215.57V8.28125ZM230.992 12.5938H230.945H230.992ZM221.852 14.0938C221.852 14.4219 221.664 14.7969 221.289 14.9375C221.711 15.0781 221.805 15.4062 221.805 15.8281V16.4375H221.008V15.9219C221.008 15.3594 220.867 15.2656 220.352 15.2656H219.508V16.4375H218.711V13.2031H220.586C221.195 13.2031 221.852 13.2969 221.852 14.0938ZM220.492 14.6094C220.727 14.6094 221.008 14.5625 221.008 14.2344C221.008 13.9062 220.727 13.8594 220.492 13.8594H219.508V14.6094H220.492ZM212.383 10.8594H211.586V8.32812L210.461 10.8594H209.805L208.68 8.32812V10.8594H207.086L206.758 10.1562H205.164L204.836 10.8594H204.039L205.398 7.625H206.57L207.883 10.6719V7.625H209.148L210.18 9.82812L211.07 7.625H212.383V10.8594ZM205.445 9.45312H206.477L205.961 8.1875L205.445 9.45312ZM227.805 16.9062C229.445 16.9062 230.383 17 230.992 16.625V20.8438C230.992 22.1094 229.961 23.0938 228.742 23.0938H206.242C204.977 23.0938 203.992 22.1094 203.992 20.8438V11.3281H205.211C205.398 10.8594 205.305 11.0469 205.539 10.5781H206.43C206.617 11.0469 206.523 10.8594 206.711 11.3281H209.195V10.7656C209.289 11 209.242 10.9062 209.43 11.3281H210.836C210.93 11.0469 210.93 11.0469 211.07 10.7656V11.3281H217.398V10.1562C217.727 10.1562 217.773 10.1562 217.867 10.1562C217.867 10.1562 217.867 10.6719 217.867 11.3281H221.008V10.9062C221.336 11.1875 221.805 11.3281 222.367 11.3281H223.633C223.82 10.8594 223.727 11.0469 223.961 10.5781H224.852C225.133 11.2812 224.852 10.625 225.133 11.3281H227.617V10.2969C228.18 11.1875 227.992 10.9062 228.227 11.3281H230.195V7.01562H228.32V7.85938C227.758 6.92188 228.039 7.39062 227.805 7.01562H225.742V7.95312C225.461 7.29688 225.555 7.4375 225.367 7.01562H223.82C223.82 7.01562 223.727 7.01562 223.727 6.96875H222.414C221.805 6.96875 221.336 7.15625 221.008 7.4375V6.96875H219.133V7.25C218.617 6.96875 218.148 7.01562 216.086 6.96875H215.57H210.742C210.602 7.25 210.414 7.76562 210.133 8.375C209.992 8.09375 209.617 7.29688 209.477 6.96875H207.32V7.95312C206.992 7.15625 207.086 7.4375 206.898 6.96875H205.023C204.883 7.34375 204.414 8.46875 203.945 9.5V4.34375C203.945 3.125 204.977 2.09375 206.195 2.09375H228.695C229.961 2.09375 230.945 3.125 230.945 4.34375V12.5938C229.211 12.5938 228.883 12.5469 228.414 12.8281V12.5938C226.305 12.5938 225.93 12.5 225.367 12.8281V12.5938H221.711V12.8281C221.195 12.5 220.727 12.5938 218.148 12.5938V12.8281C217.867 12.6875 217.492 12.5938 217.023 12.5938H214.305C214.117 12.7812 213.695 13.25 213.555 13.3906C212.992 12.7344 213.086 12.8281 212.852 12.5938H208.961V16.9062H212.805C212.945 16.7656 213.414 16.25 213.555 16.1094C214.117 16.7656 214.023 16.625 214.258 16.9062H216.555C216.555 16.2031 216.555 16.5312 216.555 15.8281C217.117 15.8281 217.68 15.8281 218.148 15.5469C218.148 16.2031 218.148 16.3438 218.148 16.9062H220.023C220.023 16.0625 220.023 16.5781 220.023 15.7344C220.305 15.7344 220.398 15.7344 220.445 15.7344C220.492 15.7812 220.445 15.7344 220.445 16.9062C227.617 16.9062 227.289 16.9531 227.805 16.7188V16.9062ZM229.492 13.9062C229.305 13.9062 229.07 13.9062 229.07 14.1875C229.07 14.75 230.43 14.1875 230.945 14.8438V16.0156C230.711 16.3906 230.242 16.4375 229.867 16.4375H228.367V15.7812H229.867C230.055 15.7812 230.289 15.6875 230.289 15.4531C230.289 14.7969 228.273 15.7344 228.273 14.1875C228.273 13.5312 228.789 13.2031 229.398 13.2031H230.945V13.9062H229.492ZM226.82 15.7344C227.055 15.7344 227.242 15.6875 227.242 15.4531C227.242 14.75 225.273 15.7344 225.273 14.1875C225.273 13.5312 225.742 13.2031 226.352 13.2031H227.898V13.9062H226.492C226.305 13.9062 226.07 13.9062 226.07 14.1875C226.07 14.8906 228.086 13.8594 228.086 15.4062C228.086 16.2031 227.523 16.4375 226.82 16.4375H225.32V15.7344H226.82ZM224.852 13.8594H223.07V14.4688H224.852V15.125H223.07V15.7812H224.852V16.4375H222.273V13.2031H224.852V13.8594ZM222.227 8.79688C222.227 8.79688 222.32 8.75 222.555 8.75C222.602 8.75 222.648 8.75 222.695 8.75L222.367 9.54688C222.273 9.54688 222.227 9.54688 222.227 9.54688C222.18 9.54688 222.18 9.45312 222.18 9.17188C222.18 8.89062 222.227 8.79688 222.227 8.79688ZM222.414 7.625H223.164V8.32812C222.367 8.28125 221.617 8.14062 221.617 9.21875C221.617 9.78125 221.758 10.1562 222.367 10.1562H222.742L223.82 7.625H224.992L226.305 10.6719V7.625H227.477L228.836 9.875V7.625H229.633V10.8594H228.555L227.055 8.42188V10.8594H225.508L225.18 10.1562H223.586L223.258 10.8594H222.367C221.289 10.8594 220.82 10.2969 220.82 9.26562C220.82 8.1875 221.336 7.625 222.414 7.625ZM224.383 8.1875L223.867 9.45312H224.898L224.383 8.1875ZM219.648 7.625H220.445V10.8594H219.648V7.625Z" fill="white"/>
</g>
<defs>
<clipPath id="clip0_39_5787">
<rect width="267.5" height="24" fill="white" transform="translate(-0.0078125 0.59375)"/>
</clipPath>
</defs>
</svg>
