<svg width="320" height="288" viewBox="0 0 320 288" fill="none" xmlns="http://www.w3.org/2000/svg">
<path d="M72.8164 284.511C70.2822 288.13 65.2795 289.025 61.7914 286.313C37.3164 267.285 18.8476 241.512 8.71702 212.091C-2.28349 180.143 -2.88761 145.533 6.99124 113.221C16.8701 80.9082 36.7248 52.5528 63.7096 32.2183C90.6945 11.8838 123.424 0.614059 157.208 0.0243685C190.991 -0.565322 224.094 9.55529 251.772 28.9357C279.45 48.3161 300.282 75.9613 311.283 107.909C322.284 139.857 322.888 174.467 313.009 206.779C303.911 236.537 286.353 262.938 262.557 282.809C259.166 285.641 254.135 284.921 251.476 281.393C248.817 277.864 249.538 272.865 252.914 270.014C274.019 252.19 289.598 228.627 297.708 202.102C306.599 173.021 306.055 141.871 296.155 113.118C286.254 84.3652 267.505 59.4845 242.595 42.0421C217.685 24.5998 187.892 15.4912 157.487 16.0219C127.082 16.5527 97.625 26.6954 73.3386 44.9965C49.0523 63.2976 31.1831 88.8174 22.2921 117.898C13.4011 146.98 13.9449 178.129 23.8453 206.882C32.8757 233.108 49.2677 256.113 70.9822 273.189C74.4552 275.921 75.3506 280.892 72.8164 284.511Z" fill="#2E2460"/>
</svg>
