<svg width="60" height="60" viewBox="0 0 60 60" fill="none" xmlns="http://www.w3.org/2000/svg">
<path d="M30 5C23.45 5 18.125 10.325 18.125 16.875C18.125 23.3 23.15 28.5 29.7 28.725C29.9 28.7 30.1 28.7 30.25 28.725C30.3 28.725 30.325 28.725 30.375 28.725C30.4 28.725 30.4 28.725 30.425 28.725C36.825 28.5 41.85 23.3 41.875 16.875C41.875 10.325 36.55 5 30 5Z" fill="white"/>
<path d="M42.7 35.3752C35.725 30.7252 24.35 30.7252 17.325 35.3752C14.15 37.5002 12.4 40.3752 12.4 43.4502C12.4 46.5252 14.15 49.3752 17.3 51.4752C20.8 53.8252 25.4 55.0002 30 55.0002C34.6 55.0002 39.2 53.8252 42.7 51.4752C45.85 49.3502 47.6 46.5002 47.6 43.4002C47.575 40.3252 45.85 37.4752 42.7 35.3752Z" fill="white"/>
</svg>
