<svg width="21" height="22" viewBox="0 0 21 22" fill="none" xmlns="http://www.w3.org/2000/svg">
<path d="M10.6568 5.50195C13.2408 5.50195 15.3736 7.63477 15.3736 10.2188C15.3736 12.8438 13.2408 14.9355 10.6568 14.9355C8.03181 14.9355 5.94002 12.8438 5.94002 10.2188C5.94002 7.63477 8.03181 5.50195 10.6568 5.50195ZM10.6568 13.2949C12.3385 13.2949 13.692 11.9414 13.692 10.2188C13.692 8.53711 12.3385 7.18359 10.6568 7.18359C8.93416 7.18359 7.58064 8.53711 7.58064 10.2188C7.58064 11.9414 8.97517 13.2949 10.6568 13.2949ZM16.6451 5.33789C16.6451 5.95312 16.1529 6.44531 15.5377 6.44531C14.9224 6.44531 14.4303 5.95312 14.4303 5.33789C14.4303 4.72266 14.9224 4.23047 15.5377 4.23047C16.1529 4.23047 16.6451 4.72266 16.6451 5.33789ZM19.7623 6.44531C19.8443 7.96289 19.8443 12.5156 19.7623 14.0332C19.6803 15.5098 19.3521 16.7812 18.2857 17.8887C17.2193 18.9551 15.9068 19.2832 14.4303 19.3652C12.9127 19.4473 8.35994 19.4473 6.84236 19.3652C5.3658 19.2832 4.09431 18.9551 2.98689 17.8887C1.92048 16.7812 1.59236 15.5098 1.51033 14.0332C1.4283 12.5156 1.4283 7.96289 1.51033 6.44531C1.59236 4.96875 1.92048 3.65625 2.98689 2.58984C4.09431 1.52344 5.3658 1.19531 6.84236 1.11328C8.35994 1.03125 12.9127 1.03125 14.4303 1.11328C15.9068 1.19531 17.2193 1.52344 18.2857 2.58984C19.3521 3.65625 19.6803 4.96875 19.7623 6.44531ZM17.7935 15.6328C18.2857 14.4434 18.1627 11.5723 18.1627 10.2188C18.1627 8.90625 18.2857 6.03516 17.7935 4.80469C17.4654 4.02539 16.8502 3.36914 16.0709 3.08203C14.8404 2.58984 11.9693 2.71289 10.6568 2.71289C9.3033 2.71289 6.4322 2.58984 5.24275 3.08203C4.42244 3.41016 3.8072 4.02539 3.47908 4.80469C2.98689 6.03516 3.10994 8.90625 3.10994 10.2188C3.10994 11.5723 2.98689 14.4434 3.47908 15.6328C3.8072 16.4531 4.42244 17.0684 5.24275 17.3965C6.4322 17.8887 9.3033 17.7656 10.6568 17.7656C11.9693 17.7656 14.8404 17.8887 16.0709 17.3965C16.8502 17.0684 17.5064 16.4531 17.7935 15.6328Z" fill="white"/>
</svg>
