<svg width="23" height="22" viewBox="0 0 23 22" fill="none" xmlns="http://www.w3.org/2000/svg">
<path d="M22.3783 4.8457C22.8705 6.56836 22.8705 10.2598 22.8705 10.2598C22.8705 10.2598 22.8705 13.9102 22.3783 15.6738C22.1322 16.6582 21.3529 17.3965 20.4095 17.6426C18.6459 18.0938 11.6732 18.0938 11.6732 18.0938C11.6732 18.0938 4.65955 18.0938 2.89587 17.6426C1.95252 17.3965 1.17322 16.6582 0.927125 15.6738C0.434937 13.9102 0.434937 10.2598 0.434937 10.2598C0.434937 10.2598 0.434937 6.56836 0.927125 4.8457C1.17322 3.86133 1.95252 3.08203 2.89587 2.83594C4.65955 2.34375 11.6732 2.34375 11.6732 2.34375C11.6732 2.34375 18.6459 2.34375 20.4095 2.83594C21.3529 3.08203 22.1322 3.86133 22.3783 4.8457ZM9.37634 13.582L15.2006 10.2598L9.37634 6.9375V13.582Z" fill="white"/>
</svg>
