<svg width="22" height="22" viewBox="0 0 22 22" fill="none" xmlns="http://www.w3.org/2000/svg">
<path d="M18.9887 5.95312C18.9887 6.1582 18.9887 6.32227 18.9887 6.52734C18.9887 12.2285 14.682 18.75 6.76602 18.75C4.30508 18.75 2.04922 18.0527 0.1625 16.8223C0.490625 16.8633 0.81875 16.9043 1.18789 16.9043C3.19766 16.9043 5.04336 16.207 6.51992 15.0586C4.6332 15.0176 3.03359 13.7871 2.50039 12.0645C2.7875 12.1055 3.03359 12.1465 3.3207 12.1465C3.68984 12.1465 4.1 12.0645 4.42813 11.9824C2.45938 11.5723 0.982813 9.84961 0.982813 7.75781V7.7168C1.55703 8.04492 2.2543 8.20898 2.95156 8.25C1.76211 7.4707 1.02383 6.1582 1.02383 4.68164C1.02383 3.86133 1.22891 3.12305 1.59805 2.50781C3.73086 5.0918 6.93008 6.81445 10.4984 7.01953C10.4164 6.69141 10.3754 6.36328 10.3754 6.03516C10.3754 3.65625 12.3031 1.72852 14.682 1.72852C15.9125 1.72852 17.0199 2.2207 17.8402 3.08203C18.7836 2.87695 19.727 2.50781 20.5473 2.01562C20.2191 3.04102 19.5629 3.86133 18.6605 4.39453C19.5219 4.3125 20.3832 4.06641 21.1215 3.73828C20.5473 4.59961 19.809 5.33789 18.9887 5.95312Z" fill="white"/>
</svg>
