<svg width="23" height="30" viewBox="0 0 23 30" fill="none" xmlns="http://www.w3.org/2000/svg">
<g clip-path="url(#clip0_341_10394)">
<path d="M10.1804 28.6912C7.24177 25.077 0.705811 16.3173 0.705811 11.3971C0.705811 5.42746 5.54501 0.588257 11.5146 0.588257C17.482 0.588257 22.3235 5.42746 22.3235 11.3971C22.3235 16.3173 15.7368 25.077 12.8488 28.6912C12.1564 29.5525 10.8729 29.5525 10.1804 28.6912ZM11.5146 15C13.5019 15 15.1176 13.3843 15.1176 11.3971C15.1176 9.40983 13.5019 7.79414 11.5146 7.79414C9.52739 7.79414 7.91169 9.40983 7.91169 11.3971C7.91169 13.3843 9.52739 15 11.5146 15Z" fill="white"/>
</g>
<defs>
<clipPath id="clip0_341_10394">
<rect width="21.6176" height="28.8235" fill="white" transform="translate(0.705811 0.588257)"/>
</clipPath>
</defs>
</svg>
