<svg width="460" height="435" viewBox="0 0 460 435" fill="none" xmlns="http://www.w3.org/2000/svg">
<g clip-path="url(#clip0_338_4023)">
<path d="M370.774 284.993C370.92 279.802 369.345 274.708 366.297 270.503C363.248 266.298 358.896 263.218 353.917 261.742C343.878 259.039 333.21 264.004 326.423 271.341C323.373 274.529 321.089 278.371 319.746 282.574C318.74 285.873 318.395 290.429 322.071 292.173C325.747 293.917 329.172 291.309 331.498 288.686C334.404 285.465 336.478 281.6 340.044 279.008C342.248 277.376 344.769 276.222 347.444 275.619C350.119 275.015 352.891 274.976 355.582 275.504C358.211 276.057 360.672 277.225 362.762 278.913C364.988 280.971 366.838 283.4 368.229 286.093C368.376 286.285 368.587 286.417 368.824 286.464C369.061 286.51 369.306 286.469 369.515 286.348C369.723 286.226 369.88 286.032 369.956 285.803C370.032 285.574 370.021 285.325 369.926 285.103C367.664 281.349 365.417 277.924 361.521 275.677C357.976 273.677 353.897 272.826 349.848 273.242C345.781 273.629 341.902 275.141 338.646 277.609C335.629 279.887 333.681 282.935 331.325 285.842C329.424 288.198 325.04 293.085 321.898 289.691C319.306 286.957 322.04 281.191 323.469 278.521C328.183 270.178 337.263 263.47 347.036 262.983C359.149 262.37 369.172 273.022 368.748 284.978C368.748 286.235 370.665 286.235 370.712 284.978L370.774 284.993Z" fill="#2E2460"/>
<path d="M349.251 428.072C349.167 428.086 349.082 428.086 348.999 428.072C348.803 428 348.643 427.855 348.552 427.668C348.461 427.48 348.447 427.264 348.512 427.066C358.756 397.561 363.673 342.715 366.611 309.942C367.349 301.678 367.994 294.546 368.543 289.613C368.931 286.583 368.301 283.51 366.752 280.877C366.698 280.789 366.662 280.69 366.646 280.588C366.63 280.485 366.635 280.38 366.66 280.28C366.685 280.179 366.729 280.084 366.791 280C366.853 279.917 366.93 279.847 367.02 279.793C367.107 279.739 367.204 279.704 367.305 279.688C367.407 279.672 367.51 279.677 367.61 279.702C367.709 279.727 367.803 279.771 367.885 279.833C367.967 279.894 368.036 279.972 368.088 280.06C369.822 282.988 370.534 286.409 370.115 289.785C369.549 294.703 368.921 301.82 368.166 310.084C365.228 342.919 360.311 397.891 350.005 427.585C349.944 427.733 349.839 427.859 349.704 427.946C349.569 428.033 349.411 428.077 349.251 428.072Z" fill="#2E2460"/>
<path d="M405.039 274.467C409.627 264.868 421.347 259.605 431.449 263.47C440.734 267.036 446.673 277.075 447.93 286.596C448.566 290.289 448.208 294.085 446.893 297.594C445.149 301.49 441.096 300.971 439.336 297.389C437.765 294.059 437.561 290.178 436.807 286.612C435.949 282.596 433.984 278.901 431.135 275.944C427.842 272.487 423.459 270.268 418.724 269.66C413.131 269 408.637 271.137 404.003 273.98C403.811 274.127 403.679 274.338 403.632 274.575C403.585 274.812 403.627 275.057 403.748 275.266C403.87 275.474 404.063 275.631 404.292 275.707C404.522 275.782 404.77 275.772 404.992 275.677C407.319 274.04 409.891 272.783 412.612 271.954C415.194 271.336 417.885 271.336 420.467 271.954C423.044 272.612 425.461 273.787 427.57 275.407C429.679 277.028 431.437 279.06 432.738 281.38C434.89 285.135 435.173 289.235 436.037 293.336C436.712 296.588 437.875 300.799 441.347 302.103C449.957 305.339 450.554 291.341 449.862 286.282C448.527 276.415 442.557 266.298 433.193 262.15C422.101 257.248 408.543 262.731 403.343 273.556C402.809 274.687 404.505 275.693 405.039 274.546V274.467Z" fill="#2E2460"/>
<path d="M363.186 431.497H363.076C362.973 431.483 362.873 431.449 362.782 431.397C362.692 431.344 362.613 431.274 362.55 431.191C362.487 431.107 362.442 431.012 362.416 430.911C362.39 430.81 362.385 430.704 362.401 430.601C368.229 391.057 393.382 299.95 401.772 278.096C402.962 274.909 405.171 272.203 408.056 270.398C408.145 270.344 408.243 270.308 408.346 270.292C408.448 270.276 408.553 270.281 408.654 270.306C408.755 270.33 408.85 270.375 408.933 270.437C409.016 270.499 409.087 270.576 409.14 270.665C409.245 270.845 409.276 271.059 409.226 271.261C409.177 271.464 409.05 271.639 408.873 271.749C406.28 273.366 404.296 275.797 403.233 278.662C394.859 300.469 369.785 391.371 363.956 430.837C363.923 431.019 363.829 431.184 363.689 431.304C363.548 431.424 363.371 431.492 363.186 431.497Z" fill="#2E2460"/>
<path d="M357.247 430.035C357.159 430.05 357.069 430.05 356.98 430.035C356.785 429.968 356.625 429.826 356.534 429.64C356.443 429.455 356.428 429.242 356.493 429.046C369.156 392.628 387.145 277.767 390.083 252.158C390.467 249.126 389.832 246.053 388.276 243.423C388.168 243.244 388.135 243.029 388.185 242.825C388.235 242.622 388.364 242.447 388.543 242.339C388.722 242.23 388.937 242.198 389.141 242.248C389.344 242.298 389.519 242.427 389.627 242.606C391.359 245.534 392.067 248.956 391.638 252.331C388.7 277.987 370.664 393.037 357.986 429.548C357.926 429.694 357.823 429.819 357.692 429.906C357.56 429.993 357.405 430.038 357.247 430.035Z" fill="#2E2460"/>
<path d="M382.18 306.784C382.078 306.78 381.977 306.756 381.884 306.712C381.791 306.669 381.708 306.607 381.639 306.531C381.57 306.455 381.518 306.366 381.484 306.269C381.45 306.172 381.436 306.07 381.442 305.967C382.149 293.823 379.18 268.104 379.148 267.837C379.126 267.631 379.186 267.425 379.316 267.263C379.445 267.101 379.634 266.997 379.84 266.973C380.046 266.951 380.252 267.011 380.414 267.141C380.576 267.27 380.68 267.459 380.704 267.665C380.704 267.916 383.72 293.776 383.013 306.046C383.007 306.149 382.981 306.25 382.936 306.343C382.891 306.436 382.827 306.519 382.75 306.588C382.673 306.657 382.583 306.709 382.485 306.743C382.387 306.777 382.284 306.791 382.18 306.784Z" fill="#2E2460"/>
<path d="M380.735 275.394H380.657C380.462 275.375 380.282 275.283 380.151 275.138C380.021 274.993 379.949 274.804 379.95 274.609C379.828 270.854 379.019 267.153 377.562 263.69C376.174 260.199 373.869 257.148 370.891 254.858C367.912 252.568 364.371 251.125 360.641 250.681C350.555 249.11 344.05 246.235 341.301 242.103C340.731 241.326 340.33 240.438 340.125 239.496C339.919 238.554 339.913 237.58 340.107 236.636C340.35 235.568 340.817 234.565 341.478 233.693C342.139 232.82 342.979 232.099 343.94 231.577C348.292 229.11 355.724 229.519 366.014 232.739C388.229 239.699 381.568 274.42 381.505 274.766C381.466 274.942 381.369 275.1 381.229 275.214C381.09 275.328 380.915 275.391 380.735 275.394ZM351.277 231.561C349.006 231.445 346.742 231.921 344.71 232.944C343.924 233.355 343.236 233.931 342.693 234.634C342.151 235.336 341.767 236.148 341.568 237.013C341.431 237.746 341.446 238.5 341.614 239.228C341.782 239.955 342.098 240.64 342.542 241.239C344.255 243.816 348.827 247.272 360.814 249.094C374.451 251.215 379.07 261.663 380.641 268.45C381.442 258.474 380.892 239.039 365.48 234.216C360.903 232.634 356.117 231.739 351.277 231.561Z" fill="#2E2460"/>
<path d="M390.868 252.189C390.868 252.189 370.774 229.456 381.175 228.278C391.575 227.099 394.655 243.658 390.868 252.189Z" fill="#2E2460"/>
<path d="M390.869 252.943C390.757 252.944 390.647 252.921 390.545 252.878C390.442 252.835 390.349 252.772 390.272 252.692C388.701 250.964 375.394 235.63 377.703 229.739C377.993 229.066 378.473 228.492 379.084 228.087C379.695 227.683 380.411 227.465 381.144 227.461C382.806 227.258 384.492 227.523 386.013 228.225C387.534 228.927 388.829 230.039 389.753 231.435C393.539 236.589 394.466 246.235 391.623 252.488C391.567 252.606 391.484 252.709 391.38 252.788C391.276 252.868 391.154 252.921 391.026 252.943H390.869ZM382.228 228.969H381.269C379.541 229.173 379.227 229.99 379.133 230.257C377.562 234.216 386.234 245.497 390.602 250.681C392.597 244.915 391.717 236.824 388.449 232.378C387.772 231.345 386.849 230.496 385.763 229.906C384.678 229.317 383.463 229.006 382.228 229V228.969Z" fill="#2E2460"/>
<path d="M373.398 360.248C373.398 360.248 381.568 344.223 388.904 350.445C396.241 356.666 373.398 360.248 373.398 360.248Z" fill="#2E2460"/>
<path d="M373.398 361.034C373.272 361.036 373.147 361.007 373.035 360.949C372.923 360.892 372.826 360.807 372.754 360.704C372.681 360.58 372.642 360.439 372.642 360.295C372.642 360.151 372.681 360.01 372.754 359.887C372.974 359.478 378.096 349.565 384.144 348.355C385.095 348.175 386.076 348.224 387.004 348.497C387.933 348.77 388.784 349.26 389.486 349.926C390.096 350.328 390.571 350.904 390.851 351.579C391.131 352.253 391.203 352.997 391.057 353.712C389.722 358.426 375.189 360.845 373.54 361.112L373.398 361.034ZM385.307 349.8C385.001 349.801 384.696 349.833 384.396 349.895C380.327 350.696 376.54 356.477 374.969 359.195C380.829 358.111 388.873 355.802 389.612 353.21C389.612 352.974 389.879 352.236 388.481 351.042C387.614 350.247 386.483 349.804 385.307 349.8Z" fill="#2E2460"/>
<path d="M398.457 354.184C397.336 354.214 396.234 353.883 395.315 353.241C392.974 351.592 391.921 347.9 392.173 342.244C392.377 337.735 391.544 334.388 389.769 332.409C388.976 331.47 387.849 330.879 386.627 330.759C386.462 330.754 386.302 330.697 386.172 330.596C386.041 330.495 385.945 330.356 385.898 330.197C385.851 330.039 385.856 329.87 385.91 329.714C385.965 329.558 386.067 329.424 386.202 329.329C386.454 329.141 392.754 324.758 398.394 326.58C401.379 327.538 403.594 330.052 404.945 334.011C409.47 347.193 406.846 351.293 401.552 353.524C400.568 353.927 399.52 354.15 398.457 354.184ZM388.7 329.691C389.545 330.062 390.308 330.596 390.947 331.262C393.068 333.54 394.089 337.248 393.806 342.259C393.524 347.271 394.419 350.617 396.273 351.921C396.994 352.314 397.798 352.527 398.618 352.543C399.438 352.56 400.251 352.379 400.986 352.016C404.757 350.445 408.072 347.837 403.5 334.483C402.306 331.01 400.358 328.827 397.954 328.025C394.608 326.973 390.774 328.575 388.7 329.691Z" fill="#2E2460"/>
<path d="M393.995 305.308H393.822C393.621 305.255 393.448 305.129 393.337 304.954C393.227 304.779 393.186 304.568 393.225 304.365L410.35 227.225C410.396 227.017 410.522 226.835 410.702 226.72C410.882 226.605 411.1 226.566 411.308 226.612C411.516 226.658 411.698 226.785 411.813 226.965C411.928 227.144 411.967 227.362 411.921 227.571L394.796 304.711C394.753 304.888 394.649 305.044 394.503 305.153C394.356 305.262 394.177 305.317 393.995 305.308Z" fill="#2E2460"/>
<path d="M409.25 234.091C405.291 219.684 374.466 224.853 372.251 219.071C367.727 207.319 383.532 211.059 388.213 212.394C395.347 214.57 401.964 218.173 407.663 222.983C404.317 216.259 398.724 212.174 392.801 208.482C388.402 206.063 373.21 200.375 374.419 193.588C377.043 178.254 407.412 207.194 410.743 213.227C409.863 206.628 401.316 174.72 414.906 173.18C426.061 172.19 413.712 202.088 416.618 207.744C421.489 202.763 428.354 192.284 434.372 188.278C447.694 179.386 456.241 185.309 446.61 192.111C438.017 198.191 424.929 206.251 419.902 217.657C426.705 214.939 431.999 210.964 438.928 209.66C443.044 208.592 461.488 206.628 459.352 214.546C456.21 224.287 426.359 218.49 418.724 224.428C423.248 228.246 432.518 225.685 438.692 228.293C444.819 230.226 453.853 237.861 442.808 240.233C432.408 241.805 419.541 225.764 409.313 234.043" fill="#2E2460"/>
<path d="M366.422 336.871C359.855 329.534 343.17 341.584 340.17 338.866C334.058 333.257 344.49 330.822 347.632 330.241C352.484 329.431 357.45 329.618 362.228 330.79C358.269 327.79 353.775 327.036 349.203 326.58C345.888 326.454 335.252 327.554 333.98 323.186C331.026 313.367 357.467 321.537 361.175 324.129C358.724 320.484 344.333 304.145 351.874 299.259C358.159 295.41 359.651 316.666 363.06 319.196C364.459 314.813 365.448 306.627 367.774 302.495C373.021 293.336 379.808 294.326 376.116 301.16C372.832 307.271 367.491 315.912 367.836 324.082C371.057 320.484 373.021 316.588 376.713 313.791C378.834 311.938 389.14 305.37 390.193 310.649C391.23 317.311 371.843 322.668 369.109 328.402C372.895 329.329 377.609 325.103 382.023 324.836C386.202 324.176 393.775 326.03 387.962 330.665C382.29 334.671 369.973 328.952 366.375 336.839" fill="#2E2460"/>
<path d="M395.754 299.479C396.634 289.66 376.414 285.716 376.383 281.631C376.383 273.336 385.213 279.306 387.773 281.223C391.681 284.197 394.937 287.939 397.341 292.22C396.823 287.287 394.325 283.485 391.528 279.84C389.36 277.311 381.301 270.288 383.673 266.376C388.842 257.531 400.955 282.433 401.536 286.91C402.526 282.637 404.678 260.972 413.382 263.156C420.499 265.135 405.951 280.72 406.438 284.931C410.585 282.967 417.247 278.096 421.897 277.075C432.172 274.672 436.037 280.312 428.559 282.291C421.85 284.051 411.889 286.03 406.139 291.843C410.962 291.749 415.157 290.524 419.729 291.325C422.526 291.623 434.356 294.671 431.182 299.055C427.035 304.365 409.894 293.854 403.83 295.755C405.731 299.149 412.047 299.715 415.252 302.762C418.582 305.37 422.4 312.189 415.032 311.073C408.229 309.675 404.034 296.761 395.802 299.51" fill="#2E2460"/>
<path d="M348.858 0.785522H188.309C174.426 0.785522 163.172 12.0398 163.172 25.9228V409.077C163.172 422.96 174.426 434.214 188.309 434.214H348.858C362.741 434.214 373.995 422.96 373.995 409.077V25.9228C373.995 12.0398 362.741 0.785522 348.858 0.785522Z" fill="white"/>
<path d="M348.858 435H188.309C181.437 434.992 174.848 432.258 169.988 427.398C165.129 422.539 162.395 415.95 162.386 409.077V25.9228C162.395 19.0502 165.129 12.4615 169.988 7.60179C174.848 2.74213 181.437 0.00831531 188.309 0L348.858 0C355.73 0.00831531 362.319 2.74213 367.179 7.60179C372.038 12.4615 374.772 19.0502 374.78 25.9228V409.077C374.772 415.95 372.038 422.539 367.179 427.398C362.319 432.258 355.73 434.992 348.858 435ZM188.309 1.57108C181.853 1.57939 175.664 4.14768 171.099 8.71271C166.534 13.2777 163.966 19.4669 163.958 25.9228V409.077C163.966 415.533 166.534 421.722 171.099 426.287C175.664 430.852 181.853 433.421 188.309 433.429H348.858C355.315 433.425 361.506 430.858 366.072 426.292C370.638 421.726 373.205 415.534 373.209 409.077V25.9228C373.205 19.4656 370.638 13.2741 366.072 8.70812C361.506 4.14219 355.315 1.57524 348.858 1.57108H188.309Z" fill="#2E2460"/>
<path d="M323.846 0.785522H163.58C149.619 0.785522 138.302 12.1032 138.302 26.0642V408.936C138.302 422.897 149.619 434.214 163.58 434.214H323.846C337.807 434.214 349.125 422.897 349.125 408.936V26.0642C349.125 12.1032 337.807 0.785522 323.846 0.785522Z" fill="white"/>
<path d="M323.846 435H163.596C156.686 434.992 150.062 432.243 145.175 427.357C140.289 422.471 137.541 415.846 137.532 408.936V26.0642C137.541 19.1568 140.287 12.5345 145.17 7.64875C150.053 2.76301 156.673 0.0124707 163.581 0L323.831 0C330.741 0.00831541 337.365 2.75703 342.252 7.64321C347.138 12.5294 349.887 19.1541 349.895 26.0642V408.936C349.887 415.843 347.14 422.466 342.257 427.351C337.374 432.237 330.754 434.988 323.846 435ZM163.581 1.57108C157.086 1.57524 150.858 4.15709 146.266 8.74954C141.674 13.342 139.092 19.5695 139.088 26.0642V408.936C139.092 415.431 141.674 421.658 146.266 426.25C150.858 430.843 157.086 433.425 163.581 433.429H323.831C330.324 433.421 336.549 430.837 341.141 426.246C345.732 421.654 348.315 415.429 348.324 408.936V26.0642C348.315 19.5735 345.734 13.3508 341.146 8.75966C336.558 4.16857 330.337 1.58355 323.846 1.57108H163.581Z" fill="#2E2460"/>
<path d="M323.076 5.98584H164.335C152.829 5.98584 143.502 15.3129 143.502 26.8183V362.605C143.502 374.11 152.829 383.437 164.335 383.437H323.076C334.582 383.437 343.909 374.11 343.909 362.605V26.8183C343.909 15.3129 334.582 5.98584 323.076 5.98584Z" fill="white"/>
<path d="M323.092 384.239H164.335C158.602 384.234 153.106 381.955 149.053 377.902C145 373.849 142.721 368.353 142.717 362.621V26.8183C142.721 21.0862 145 15.59 149.053 11.5367C153.106 7.48342 158.602 5.20448 164.335 5.20032H323.092C328.821 5.20864 334.314 7.48942 338.364 11.5422C342.413 15.595 344.69 21.0889 344.694 26.8183V362.621C344.69 368.35 342.413 373.844 338.364 377.897C334.314 381.949 328.821 384.23 323.092 384.239ZM164.335 6.7714C159.02 6.77971 153.926 8.89446 150.168 12.6522C146.411 16.4099 144.296 21.5041 144.288 26.8183V362.621C144.296 367.935 146.411 373.029 150.168 376.787C153.926 380.544 159.02 382.659 164.335 382.667H323.092C328.405 382.659 333.497 380.544 337.253 376.786C341.008 373.028 343.119 367.933 343.123 362.621V26.8183C343.119 21.5056 341.008 16.4113 337.253 12.6532C333.497 8.89497 328.405 6.77971 323.092 6.7714H164.335Z" fill="#2E2460"/>
<path d="M334.765 431.434C335.284 431.167 335.802 430.884 336.336 430.585C335.802 430.884 335.284 431.167 334.765 431.434Z" fill="#EAF4FF"/>
<path d="M334.765 3.56641C335.284 3.83349 335.802 4.11628 336.336 4.41479C335.802 4.11628 335.284 3.83349 334.765 3.56641Z" fill="#EAF4FF"/>
<path d="M365.606 38.9627C365.606 37.0451 364.051 35.4906 362.133 35.4906C360.216 35.4906 358.661 37.0451 358.661 38.9627V61.5234C358.661 63.4409 360.216 64.9954 362.133 64.9954C364.051 64.9954 365.606 63.4409 365.606 61.5234V38.9627Z" fill="#2E2460"/>
<path d="M237.154 426.406C246.751 426.406 254.53 418.627 254.53 409.03C254.53 399.434 246.751 391.654 237.154 391.654C227.558 391.654 219.778 399.434 219.778 409.03C219.778 418.627 227.558 426.406 237.154 426.406Z" fill="#2E2460"/>
<path d="M276.871 14.3911H225.057C223.66 14.3911 222.528 15.5236 222.528 16.9205C222.528 18.3175 223.66 19.45 225.057 19.45H276.871C278.268 19.45 279.401 18.3175 279.401 16.9205C279.401 15.5236 278.268 14.3911 276.871 14.3911Z" fill="#2E2460"/>
<path d="M219.15 16.9205C219.15 15.5236 218.017 14.3911 216.62 14.3911C215.223 14.3911 214.091 15.5236 214.091 16.9205C214.091 18.3175 215.223 19.45 216.62 19.45C218.017 19.45 219.15 18.3175 219.15 16.9205Z" fill="#2E2460"/>
<path d="M87.8547 194.814L129.017 202.433C129.702 202.547 130.397 202.594 131.091 202.575C132.945 202.418 138.679 201.444 141.978 201.993C142.171 202.027 142.348 202.121 142.484 202.261C142.62 202.401 142.708 202.581 142.736 202.774C142.764 202.968 142.73 203.165 142.639 203.338C142.548 203.511 142.405 203.651 142.23 203.737C140.549 204.507 137.956 205.136 137.516 205.78C137.516 205.78 136.558 207.084 139.323 207.696C142.465 208.372 149.598 209.613 154.028 210.006C154.237 210.006 154.437 210.089 154.584 210.236C154.731 210.383 154.814 210.583 154.814 210.791C154.814 211 154.731 211.2 154.584 211.347C154.437 211.494 154.237 211.577 154.028 211.577C149.267 211.827 144.493 211.717 139.747 211.247L139.952 211.498C144.209 212.394 152.159 213.666 156.385 214.106C156.593 214.106 156.793 214.189 156.941 214.336C157.088 214.484 157.171 214.684 157.171 214.892C157.171 215.1 157.088 215.3 156.941 215.447C156.793 215.595 156.593 215.677 156.385 215.677C151.047 215.964 145.695 215.843 140.376 215.316C140.382 215.379 140.382 215.442 140.376 215.505C143.926 216.227 149.692 217.076 153.479 217.39C153.687 217.39 153.887 217.473 154.034 217.62C154.181 217.767 154.264 217.967 154.264 218.175C154.264 218.384 154.181 218.584 154.034 218.731C153.887 218.878 153.687 218.961 153.479 218.961C148.401 219.217 143.311 219.075 138.255 218.537L138.066 218.71C140.39 219.518 142.819 219.984 145.278 220.092C146.252 220.092 146.173 221.836 145.278 221.852C140.497 221.914 135.718 221.688 130.965 221.176L126.252 220.689L79.8422 214.735C77.7025 214.463 75.7096 213.502 74.1648 211.997C72.62 210.491 71.6073 208.524 71.2798 206.392L74.9404 190.682" fill="white"/>
<path d="M143.298 222.669C137.155 222.669 130.855 221.962 130.729 221.962L126.016 221.475L79.5908 215.52C77.2851 215.215 75.1394 214.174 73.4723 212.553C71.8053 210.931 70.7058 208.815 70.3371 206.518C70.3215 206.419 70.3215 206.319 70.3371 206.22L73.9977 190.509C74.0462 190.307 74.1726 190.133 74.3492 190.024C74.5258 189.915 74.7383 189.88 74.9404 189.928C75.0414 189.95 75.1368 189.992 75.2211 190.052C75.3054 190.111 75.3768 190.188 75.4311 190.276C75.4853 190.364 75.5213 190.462 75.5369 190.564C75.5524 190.666 75.5473 190.77 75.5217 190.87L71.9082 206.361C72.2453 208.29 73.1888 210.061 74.6015 211.418C76.0141 212.774 77.8224 213.644 79.7636 213.902L126.283 219.951L130.996 220.438C135.693 220.932 140.414 221.152 145.136 221.098C145.16 221.026 145.16 220.949 145.136 220.878C142.608 220.775 140.109 220.299 137.721 219.464C137.602 219.409 137.499 219.327 137.42 219.223C137.341 219.12 137.289 218.998 137.267 218.87C137.245 218.741 137.255 218.61 137.296 218.486C137.337 218.362 137.407 218.25 137.501 218.16C137.721 217.952 138.001 217.819 138.302 217.783C143.285 218.302 148.301 218.438 153.306 218.191C149.425 217.861 143.628 217.029 140.109 216.306C139.997 216.282 139.891 216.235 139.799 216.167C139.707 216.1 139.63 216.013 139.575 215.913C139.528 215.807 139.504 215.692 139.504 215.575C139.504 215.459 139.528 215.344 139.575 215.238C139.649 215.058 139.77 214.901 139.924 214.783C140.079 214.664 140.261 214.588 140.454 214.562C145.727 215.086 151.031 215.212 156.322 214.939C151.907 214.499 143.958 213.195 139.826 212.331C139.648 212.296 139.488 212.202 139.37 212.064L139.166 211.813C139.082 211.684 139.037 211.534 139.037 211.381C139.037 211.227 139.082 211.077 139.166 210.949C139.23 210.827 139.325 210.725 139.441 210.65C139.556 210.576 139.689 210.533 139.826 210.524C144.524 210.984 149.251 211.095 153.966 210.854C148.99 210.34 144.045 209.564 139.15 208.529C137.768 208.231 136.967 207.712 136.668 206.958C136.574 206.699 136.544 206.421 136.58 206.148C136.615 205.874 136.715 205.614 136.872 205.387C137.249 204.837 138.176 204.476 139.794 203.816C140.501 203.565 141.24 203.313 141.868 203.015C141.868 202.795 141.868 202.779 141.868 202.763C138.841 202.537 135.798 202.674 132.803 203.172L131.232 203.36C130.475 203.381 129.717 203.328 128.97 203.203L87.7918 195.583C87.5835 195.546 87.3986 195.427 87.2778 195.253C87.157 195.08 87.1102 194.865 87.1477 194.657C87.1852 194.448 87.3039 194.263 87.4777 194.143C87.6516 194.022 87.8663 193.975 88.0746 194.012L129.237 201.616C129.86 201.72 130.491 201.768 131.122 201.758L132.693 201.585C135.838 201.059 139.036 200.927 142.214 201.192C142.578 201.25 142.913 201.423 143.171 201.686C143.428 201.949 143.594 202.288 143.644 202.653C143.695 203.013 143.628 203.379 143.452 203.697C143.276 204.014 143.002 204.266 142.67 204.413C141.994 204.727 141.224 205.01 140.47 205.277C139.706 205.494 138.973 205.805 138.286 206.204C138.286 206.298 138.443 206.628 139.622 206.895C142.874 207.587 149.944 208.812 154.248 209.205C154.665 209.205 155.065 209.37 155.359 209.665C155.654 209.96 155.819 210.359 155.819 210.776C155.819 211.193 155.654 211.592 155.359 211.887C155.065 212.181 154.665 212.347 154.248 212.347C153.039 212.441 151.766 212.488 150.494 212.504C152.772 212.85 154.955 213.132 156.621 213.305C157.007 213.348 157.363 213.532 157.622 213.822C157.88 214.112 158.021 214.488 158.019 214.876C158.02 215.272 157.872 215.654 157.604 215.945C157.336 216.236 156.968 216.416 156.574 216.447C155.662 216.526 154.704 216.573 153.714 216.605C154.083 216.668 154.417 216.861 154.656 217.149C154.895 217.437 155.024 217.801 155.018 218.176C155.02 218.569 154.874 218.948 154.609 219.239C154.344 219.53 153.98 219.711 153.589 219.747C151.23 219.907 148.865 219.949 146.503 219.872C146.768 220.194 146.902 220.603 146.88 221.019C146.891 221.232 146.858 221.445 146.784 221.645C146.71 221.844 146.596 222.027 146.449 222.181C146.302 222.336 146.125 222.458 145.929 222.542C145.733 222.626 145.522 222.669 145.309 222.669C144.539 222.669 143.942 222.669 143.298 222.669Z" fill="#2E2460"/>
<path d="M68.609 386.014L66.4409 421.049V433.083C66.4449 433.278 66.524 433.463 66.6616 433.601C66.7993 433.739 66.9847 433.818 67.1793 433.822H107.54C107.642 433.824 107.743 433.805 107.837 433.766C107.931 433.727 108.016 433.668 108.085 433.594C108.155 433.52 108.208 433.432 108.242 433.336C108.275 433.24 108.288 433.138 108.279 433.036C108.09 431.245 106.126 426.987 92.0181 426.202L91.6724 426.092C90.1193 425.585 88.7449 424.641 87.7133 423.374C86.3684 421.723 85.6654 419.642 85.7337 417.514L89.2844 380.719C83.1613 384.707 75.8953 386.568 68.609 386.014Z" fill="white"/>
<path d="M107.54 434.639H67.1792C66.7626 434.639 66.363 434.473 66.0683 434.179C65.7737 433.884 65.6082 433.484 65.6082 433.068V421.049L67.7762 385.935C67.7816 385.827 67.8095 385.72 67.8582 385.623C67.9069 385.525 67.9753 385.439 68.059 385.37C68.2275 385.236 68.442 385.174 68.656 385.197C75.7474 385.718 82.816 383.92 88.7973 380.075C88.9214 379.995 89.066 379.953 89.2136 379.953C89.3612 379.953 89.5058 379.995 89.6299 380.075C89.7622 380.148 89.87 380.259 89.9399 380.393C90.0097 380.527 90.0385 380.679 90.0227 380.829L86.4721 417.624C86.4081 419.545 87.0509 421.424 88.2788 422.903C89.2148 424.051 90.4566 424.912 91.8609 425.385L92.1122 425.464C106.252 426.249 108.75 430.507 109.017 432.989C109.017 433.406 108.852 433.805 108.557 434.1C108.262 434.395 107.863 434.56 107.446 434.56L107.54 434.639ZM69.3473 386.862L67.2264 421.127V433.115H107.54C107.367 431.952 105.859 427.836 91.9708 427.066H91.798L91.421 426.956C89.7289 426.396 88.2343 425.359 87.1162 423.971C85.6502 422.181 84.8803 419.921 84.9481 417.608L88.3416 382.353C82.5824 385.669 75.9823 387.236 69.3473 386.862Z" fill="#2E2460"/>
<path d="M66.4409 426.233V433.115C66.4449 433.309 66.524 433.495 66.6616 433.632C66.7993 433.77 66.9847 433.849 67.1793 433.853H107.54C107.642 433.856 107.743 433.837 107.837 433.798C107.931 433.758 108.016 433.7 108.085 433.626C108.155 433.551 108.208 433.463 108.242 433.367C108.275 433.271 108.288 433.169 108.279 433.068C108.09 431.276 106.126 427.019 92.0181 426.233L91.6724 426.123C90.1193 425.616 88.7449 424.672 87.7133 423.405C87.7133 423.405 80.9577 431.151 66.4409 426.233Z" fill="#2E2460"/>
<path d="M87.4461 395.472C87.4461 395.472 77.1241 396.037 70.3057 389.643L89.1586 382.447L87.4461 395.472Z" fill="#2E2460"/>
<path d="M29.8505 386.014L27.6824 421.049V433.083C27.6824 433.18 27.7015 433.276 27.7386 433.366C27.7757 433.455 27.8301 433.537 27.8986 433.605C27.9672 433.674 28.0486 433.728 28.1382 433.766C28.2278 433.803 28.3238 433.822 28.4208 433.822H68.7818C68.8835 433.824 68.9847 433.805 69.0786 433.766C69.1725 433.727 69.2571 433.668 69.3268 433.594C69.3965 433.52 69.4498 433.432 69.4831 433.336C69.5164 433.24 69.5291 433.138 69.5202 433.036C69.3316 431.245 67.3678 426.987 53.2595 426.202L52.9139 426.092C51.3607 425.585 49.9864 424.641 48.9548 423.374C47.6099 421.723 46.9069 419.642 46.9752 417.514L50.5258 380.719C44.4028 384.707 37.1367 386.568 29.8505 386.014Z" fill="white"/>
<path d="M68.7817 434.639H28.4207C28.004 434.639 27.6044 434.473 27.3098 434.179C27.0151 433.884 26.8496 433.484 26.8496 433.068V421.049L29.0177 385.935C29.0231 385.827 29.051 385.72 29.0997 385.623C29.1484 385.525 29.2167 385.439 29.3005 385.37C29.469 385.236 29.6835 385.174 29.8975 385.197C36.9889 385.718 44.0575 383.92 50.0387 380.075C50.1629 379.995 50.3074 379.953 50.4551 379.953C50.6027 379.953 50.7472 379.995 50.8714 380.075C51.001 380.151 51.1066 380.262 51.176 380.396C51.2455 380.529 51.276 380.679 51.2642 380.829L47.7606 417.624C47.6967 419.545 48.3395 421.424 49.5674 422.903C50.5034 424.051 51.7452 424.912 53.1494 425.385L53.4008 425.464C67.5405 426.249 70.0385 430.507 70.3056 432.989C70.3215 433.196 70.2964 433.403 70.2316 433.6C70.1669 433.797 70.0639 433.979 69.9286 434.136C69.7821 434.294 69.6047 434.42 69.4074 434.507C69.2101 434.593 68.9971 434.638 68.7817 434.639ZM30.5888 386.862L28.4678 421.127V433.115H68.7817C68.6088 431.952 67.0849 427.836 53.2123 427.066H53.0395L52.6624 426.956C50.9658 426.396 49.4661 425.36 48.3419 423.971C46.8804 422.179 46.1159 419.919 46.1896 417.608L49.5831 382.353C43.8269 385.676 37.2245 387.244 30.5888 386.862Z" fill="#2E2460"/>
<path d="M27.6824 426.233V433.115C27.6824 433.212 27.7015 433.308 27.7386 433.397C27.7757 433.487 27.8301 433.568 27.8986 433.637C27.9672 433.705 28.0486 433.76 28.1382 433.797C28.2278 433.834 28.3238 433.853 28.4208 433.853H68.7818C68.8835 433.856 68.9847 433.837 69.0786 433.798C69.1725 433.758 69.2571 433.7 69.3268 433.626C69.3965 433.551 69.4498 433.463 69.4831 433.367C69.5164 433.271 69.5291 433.169 69.5202 433.068C69.3316 431.276 67.3678 427.019 53.2595 426.233L52.9139 426.123C51.3607 425.616 49.9864 424.672 48.9548 423.405C48.9548 423.405 42.1991 431.151 27.6824 426.233Z" fill="#2E2460"/>
<path d="M48.7032 395.472C48.7032 395.472 38.3812 396.037 31.5627 389.643L50.4157 382.447L48.7032 395.472Z" fill="#2E2460"/>
<path d="M68.075 295.818L71.0286 252.943C71.0286 252.943 70.3373 243.218 75.2862 240.139L74.3593 290.414L72.364 312.99" fill="#2E2460"/>
<path d="M97.6739 196.919C97.5325 233.446 97.7681 338.222 90.8083 389.643H61.7119L65.3097 255.567L73.1651 205.293" fill="white"/>
<path d="M90.8083 390.428H61.7119C61.4977 390.422 61.2946 390.332 61.1463 390.177C61.0017 390.025 60.9227 389.822 60.9264 389.612L64.5242 255.551L72.3796 205.088C72.4129 204.88 72.5276 204.694 72.6985 204.57C72.8694 204.446 73.0824 204.395 73.2908 204.429C73.4991 204.462 73.6857 204.577 73.8094 204.748C73.9332 204.918 73.984 205.131 73.9506 205.34L66.0952 255.693L62.5289 388.857H90.117C96.4956 340.861 96.747 246.109 96.8569 205.528V196.919C96.8569 196.711 96.9397 196.511 97.087 196.363C97.2343 196.216 97.4341 196.133 97.6425 196.133C97.8523 196.137 98.052 196.224 98.1989 196.373C98.3458 196.523 98.4281 196.725 98.428 196.935V205.544C98.3181 246.392 98.0667 341.866 91.5781 389.737C91.5553 389.926 91.4647 390.1 91.3231 390.227C91.1815 390.355 90.9986 390.426 90.8083 390.428Z" fill="#2E2460"/>
<path d="M73.9348 252.943C73.9348 252.943 73.0707 290.068 70.5413 309.502C68.7011 322.804 66.1311 335.995 62.843 349.015L61.4133 305.999L73.9348 252.943Z" fill="#2E2460"/>
<path d="M82.9687 229.377C82.9687 229.377 79.6851 233.729 76.6844 234.295C75.4118 242.857 74.0921 247.602 73.9664 253.022C75.019 271.592 61.0993 338.284 54.1394 389.706H25.0273L36.292 250.54L36.4334 205.277C36.4334 205.277 43.5504 201.067 77.9412 195.851" fill="white"/>
<path d="M54.1079 390.428H25.0273C24.9179 390.427 24.81 390.402 24.7103 390.357C24.6106 390.312 24.5212 390.247 24.4476 390.166C24.374 390.085 24.3178 389.99 24.2824 389.887C24.247 389.783 24.2331 389.673 24.2417 389.564L35.5064 250.414L35.6478 205.214C35.647 205.079 35.6813 204.945 35.7474 204.827C35.8134 204.708 35.909 204.609 36.0248 204.539C36.3233 204.366 43.676 200.187 77.8155 195.018C77.9179 195 78.0228 195.003 78.124 195.027C78.2252 195.051 78.3205 195.095 78.4042 195.157C78.4878 195.218 78.5582 195.296 78.6109 195.386C78.6636 195.475 78.6977 195.575 78.711 195.678C78.7383 195.883 78.6849 196.092 78.5618 196.259C78.4387 196.426 78.2557 196.538 78.0511 196.573C48.4992 201.051 39.1041 204.821 37.2031 205.701L37.0617 250.477L25.8599 388.857H53.4166C56.1346 368.983 59.7952 347.24 63.3459 326.187C68.9546 292.959 73.8407 264.24 73.1494 252.944C73.3197 249.246 73.7873 245.568 74.5476 241.946C74.9561 239.668 75.4117 237.076 75.8673 233.996C75.8945 233.835 75.9711 233.687 76.0865 233.571C76.202 233.456 76.3505 233.379 76.5115 233.352C78.7424 232.944 81.4761 229.88 82.3402 228.733C82.4676 228.57 82.6534 228.462 82.8584 228.433C83.0634 228.404 83.2719 228.455 83.4399 228.576C83.6066 228.701 83.7168 228.887 83.7463 229.093C83.7757 229.3 83.722 229.509 83.597 229.676C83.4556 229.864 80.4549 233.808 77.3127 234.75C76.8885 237.625 76.4486 240.061 76.0559 242.229C75.3231 245.733 74.8661 249.289 74.689 252.865C75.3332 264.224 70.4785 293.006 64.8541 326.344C61.272 347.617 57.5643 369.612 54.862 389.627C54.8624 389.832 54.7845 390.029 54.6443 390.178C54.504 390.327 54.3121 390.416 54.1079 390.428Z" fill="#2E2460"/>
<path d="M87.3677 127.792C87.3677 127.792 102.23 134.17 102.859 166.534C102.859 166.534 103.078 184.586 101.177 191.939C101.177 191.939 98.0353 194.091 87.3677 191.939V127.792Z" fill="white"/>
<path d="M95.7415 193.651C92.873 193.603 90.0159 193.277 87.2105 192.677C87.0331 192.641 86.8736 192.544 86.7591 192.404C86.6446 192.264 86.582 192.088 86.5821 191.907V127.791C86.5806 127.661 86.6114 127.533 86.6717 127.418C86.732 127.303 86.82 127.204 86.9277 127.132C87.0438 127.07 87.1733 127.037 87.3048 127.037C87.4363 127.037 87.5658 127.07 87.6818 127.132C88.2946 127.399 103.016 134.091 103.644 166.55C103.644 167.304 103.833 184.79 101.932 192.159C101.886 192.343 101.774 192.505 101.617 192.614C101.397 192.708 99.8577 193.651 95.7415 193.651ZM88.1532 191.263C96.2442 192.834 99.622 191.75 100.486 191.373C102.261 183.989 102.057 166.691 102.057 166.519C101.743 150.116 97.6582 140.643 94.2961 135.584C92.6799 133.058 90.5883 130.87 88.1374 129.143L88.1532 191.263Z" fill="#2E2460"/>
<path d="M63.0003 120.973C63.0003 120.973 69.2846 120.973 81.8532 125.686C81.8532 125.686 86.5664 148.655 72.4267 150.226C72.4267 150.226 58.287 148.655 50.4316 136.087C50.4316 136.087 42.2463 123.518 43.9745 122.733L63.0003 120.973Z" fill="white"/>
<path d="M38.9941 123.817L58.8211 119.7C62.2945 118.617 66.0154 118.617 69.4888 119.7L81.1462 125.498" fill="white"/>
<path d="M81.1462 126.283C81.027 126.307 80.9042 126.307 80.7849 126.283L69.1275 120.407C65.844 119.379 62.3246 119.379 59.0412 120.407L39.167 124.586C38.9613 124.624 38.7489 124.582 38.5736 124.468C38.3982 124.354 38.2732 124.177 38.2244 123.974C38.2037 123.873 38.2032 123.768 38.2228 123.667C38.2424 123.566 38.2818 123.469 38.3387 123.383C38.3956 123.297 38.4689 123.223 38.5544 123.165C38.64 123.108 38.736 123.067 38.8371 123.047L58.6641 118.931C62.2447 117.812 66.0811 117.812 69.6617 118.931L81.429 124.759C81.5221 124.804 81.6052 124.868 81.6733 124.945C81.7414 125.023 81.7931 125.114 81.8254 125.212C81.8576 125.31 81.8698 125.414 81.8611 125.517C81.8523 125.62 81.823 125.72 81.7747 125.812C81.7233 125.941 81.6375 126.053 81.5267 126.136C81.4158 126.219 81.2842 126.27 81.1462 126.283Z" fill="#2E2460"/>
<path d="M87.3677 127.792L82.3088 125.906C86.7078 144.586 76.3701 149.032 76.3701 149.032C57.3287 155.631 42.9847 122.984 42.9847 122.984C34.2967 123.895 31.2174 128.216 31.2174 128.216C16.9205 145.796 32.4271 184.193 33.8882 187.492C35.3493 190.792 36.0248 204.774 36.0248 204.774L45.1371 209.189C51.3867 212.223 58.4014 213.318 65.2783 212.331C81.6018 210.98 95.1288 199.763 95.1288 199.763C94.3433 196.62 93.3692 193.478 92.3951 190.478C97.0036 180.082 98.5934 168.6 96.9827 157.343" fill="white"/>
<path d="M60.3136 213.478C54.9357 213.484 49.6272 212.265 44.7914 209.912L35.2549 205.293V204.837C35.0664 200.972 34.3437 190.399 33.1811 187.807C33.0083 187.398 15.4436 146.409 30.6202 127.713C30.7145 127.572 33.9823 123.141 42.9218 122.198H43.4874L43.723 122.717C43.8644 123.031 57.9884 154.626 76.1344 148.341C76.48 148.184 85.7337 143.879 81.5546 126.126L81.2247 124.712L87.6504 127.1C87.7473 127.136 87.8362 127.191 87.912 127.262C87.9878 127.332 88.0489 127.417 88.092 127.511C88.135 127.605 88.1591 127.707 88.1628 127.81C88.1666 127.913 88.1499 128.017 88.1138 128.114C88.0777 128.211 88.0229 128.299 87.9524 128.375C87.8819 128.451 87.7972 128.512 87.7032 128.555C87.6091 128.598 87.5074 128.622 87.404 128.626C87.3006 128.63 87.1975 128.613 87.1005 128.577L83.4085 127.195C87.0691 145.105 77.1241 149.614 76.7 149.802C68.5146 152.63 59.9837 148.907 51.9398 139.025C48.2335 134.35 45.071 129.269 42.5133 123.88C34.7522 124.854 31.8771 128.687 31.8457 128.718C17.2347 146.707 34.438 186.848 34.6108 187.225C35.9776 190.368 36.6532 201.821 36.7789 204.334L45.5612 208.498C51.664 211.481 58.5184 212.575 65.2468 211.64L66.9907 211.389V211.467C80.6748 209.77 92.1279 201.334 94.3746 199.605C93.699 197.013 92.8035 194.075 91.7823 190.886L91.6723 190.588L91.8137 190.305C96.3747 180.046 97.9433 168.707 96.3384 157.595C96.323 157.492 96.3284 157.388 96.3543 157.288C96.3801 157.187 96.426 157.093 96.4891 157.011C96.5521 156.929 96.6311 156.861 96.7213 156.81C96.8115 156.759 96.9111 156.727 97.014 156.715C97.2202 156.688 97.4286 156.744 97.5935 156.871C97.7584 156.998 97.8664 157.185 97.8938 157.391C99.5118 168.693 97.9448 180.222 93.3691 190.682C94.4531 194.012 95.3329 196.966 96.0242 199.715L96.1342 200.202L95.7571 200.517C95.1915 200.972 81.8688 211.844 65.4825 213.211H65.2782C63.6316 213.416 61.9727 213.505 60.3136 213.478Z" fill="#2E2460"/>
<path d="M97.674 214.515C88.7247 216.797 79.4327 217.421 70.2587 216.353C58.8834 215.009 47.5873 213.063 36.4177 210.524" fill="white"/>
<path d="M78.8525 217.579C75.9556 217.582 73.0607 217.43 70.1801 217.123C58.7671 215.746 47.4344 213.769 36.2291 211.2C36.126 211.176 36.0285 211.132 35.9423 211.071C35.8561 211.01 35.7828 210.932 35.7266 210.842C35.6132 210.661 35.5764 210.442 35.6243 210.234C35.6722 210.025 35.8009 209.845 35.9821 209.731C36.1633 209.618 36.3821 209.581 36.5905 209.629C47.7325 212.189 59.0025 214.155 70.3529 215.52C79.4031 216.575 88.5696 215.979 97.4069 213.761C97.5964 213.726 97.7919 213.763 97.9564 213.863C98.1209 213.963 98.2428 214.12 98.2991 214.304C98.3553 214.489 98.3419 214.687 98.2614 214.862C98.1809 215.037 98.039 215.176 97.8625 215.253C91.6576 216.871 85.2644 217.653 78.8525 217.579Z" fill="#2E2460"/>
<path d="M45.7653 182.653L44.0371 154.327L44.5084 154.296L46.2209 182.622L45.7653 182.653Z" fill="#2E2460"/>
<path d="M50.1201 202.548L47.0955 205.477L47.4233 205.816L50.448 202.887L50.1201 202.548Z" fill="#2E2460"/>
<path d="M75.1446 122.858L73.3535 108.184C69.0139 109.585 64.3025 109.271 60.1879 107.305L58.1455 123.015" fill="white"/>
<path d="M58.1297 123.864H58.0197C57.8136 123.836 57.6268 123.728 57.5001 123.564C57.3735 123.399 57.3174 123.19 57.3442 122.984L59.5437 106.079L60.5492 106.598C64.4808 108.457 68.9688 108.765 73.1178 107.462L74.0447 107.116L75.9615 122.827C75.9865 123.035 75.9277 123.245 75.798 123.41C75.6684 123.575 75.4785 123.682 75.2702 123.707C75.0618 123.732 74.8521 123.673 74.6871 123.543C74.5221 123.414 74.4154 123.224 74.3904 123.015L72.7093 109.284C68.78 110.331 64.6168 110.072 60.8477 108.546L58.9153 123.173C58.8921 123.364 58.7992 123.541 58.6543 123.668C58.5095 123.796 58.3227 123.865 58.1297 123.864Z" fill="#2E2460"/>
<path d="M73.9979 115.443C73.9979 115.443 67.7136 116.605 64.8228 113.542C63.1353 111.732 61.784 109.636 60.8323 107.352H73.4009L73.9979 115.443Z" fill="#2E2460"/>
<path d="M71.3898 110.714C81.1339 110.714 89.033 102.815 89.033 93.0707C89.033 83.3266 81.1339 75.4275 71.3898 75.4275C61.6457 75.4275 53.7466 83.3266 53.7466 93.0707C53.7466 102.815 61.6457 110.714 71.3898 110.714Z" fill="white"/>
<path d="M71.3896 111.547C67.7468 111.547 64.1856 110.467 61.1561 108.444C58.1265 106.421 55.7644 103.546 54.3682 100.181C52.972 96.8164 52.6044 93.1134 53.3116 89.5399C54.0189 85.9663 55.7694 82.6826 58.342 80.1034C60.9146 77.5242 64.1938 75.7654 67.7656 75.049C71.3373 74.3326 75.0412 74.6908 78.4094 76.0784C81.7776 77.466 84.659 79.8207 86.6897 82.8451C88.7203 85.8695 89.8091 89.4279 89.8184 93.0707C89.8225 95.4942 89.349 97.8947 88.4249 100.135C87.5008 102.375 86.1443 104.412 84.4328 106.128C82.7213 107.844 80.6885 109.205 78.4505 110.135C76.2124 111.065 73.8131 111.545 71.3896 111.547ZM71.3896 76.2602C68.0535 76.2602 64.7924 77.2501 62.0191 79.1045C59.2459 80.9589 57.0852 83.5945 55.8107 86.6776C54.5362 89.7607 54.2051 93.1526 54.8594 96.424C55.5137 99.6953 57.1239 102.699 59.4862 105.055C61.8485 107.41 64.8567 109.012 68.1298 109.657C71.403 110.302 74.794 109.962 77.8735 108.679C80.953 107.396 83.5825 105.228 85.4292 102.449C87.2759 99.6707 88.2566 96.4068 88.2473 93.0707C88.2431 88.6011 86.4657 84.3157 83.3052 81.1551C80.1447 77.9946 75.8593 76.2172 71.3896 76.213V76.2602Z" fill="#2E2460"/>
<path d="M89.033 96.3542C89.033 96.3542 69.8659 93.2121 65.0427 86.3151C65.0427 86.3151 61.6491 96.7156 54.2493 97.3126C54.2493 97.3126 50.3374 77.5642 71.3898 75.4746C71.3898 75.4118 88.546 75.4118 89.033 96.3542Z" fill="#2E2460"/>
<path d="M53.9664 81.0834C59.6845 81.0834 64.3198 76.448 64.3198 70.73C64.3198 65.012 59.6845 60.3766 53.9664 60.3766C48.2484 60.3766 43.613 65.012 43.613 70.73C43.613 76.448 48.2484 81.0834 53.9664 81.0834Z" fill="#2E2460"/>
<path d="M99.1507 192.567C99.1507 192.567 98.208 200.422 97.5796 209.66L99.1507 192.567Z" fill="white"/>
<path d="M97.5953 210.524C97.3898 210.505 97.1994 210.408 97.0624 210.253C96.9254 210.099 96.852 209.898 96.8569 209.692C97.4539 200.501 98.428 192.63 98.428 192.551C98.4554 192.345 98.5634 192.158 98.7283 192.032C98.8932 191.905 99.1016 191.849 99.3078 191.876C99.4092 191.887 99.5073 191.919 99.5963 191.969C99.6854 192.019 99.7636 192.086 99.8264 192.166C99.8893 192.247 99.9356 192.339 99.9625 192.437C99.9894 192.536 99.9965 192.639 99.9834 192.74C99.9834 192.818 99.0407 200.595 98.4123 209.786C98.4083 209.888 98.3839 209.989 98.3404 210.082C98.2969 210.175 98.2354 210.258 98.1592 210.327C98.0831 210.396 97.994 210.449 97.8972 210.483C97.8004 210.517 97.6977 210.531 97.5953 210.524Z" fill="#2E2460"/>
<path d="M46.9593 205.293L44.2728 192.865L25.2156 197.139L29.7403 209.66" fill="white"/>
<path d="M29.7406 210.524C29.5792 210.524 29.4217 210.475 29.2895 210.382C29.1574 210.289 29.0571 210.158 29.0022 210.006L24.4618 197.437C24.419 197.335 24.397 197.226 24.397 197.115C24.397 197.005 24.419 196.895 24.4618 196.793C24.5143 196.694 24.5879 196.607 24.6775 196.539C24.7671 196.472 24.8704 196.424 24.9802 196.4L44.0374 192.127C44.2413 192.085 44.4538 192.123 44.6297 192.235C44.8057 192.346 44.9314 192.522 44.9801 192.724L47.6666 205.151C47.6898 205.252 47.6927 205.357 47.6752 205.459C47.6576 205.562 47.62 205.659 47.5645 205.747C47.509 205.835 47.4367 205.91 47.3518 205.97C47.2668 206.03 47.1709 206.072 47.0696 206.094C46.8635 206.136 46.6491 206.095 46.4728 205.981C46.2964 205.866 46.1722 205.687 46.1269 205.481L43.6132 193.84L26.19 197.736L30.4162 209.425C30.4869 209.621 30.477 209.836 30.3886 210.025C30.3003 210.214 30.1406 210.359 29.9448 210.43L29.7406 210.524Z" fill="#2E2460"/>
<path d="M38.3972 220.972C38.3972 220.972 42.4977 222.417 41.1152 223.674C39.7326 224.931 39.3399 222.732 39.3399 222.732" fill="white"/>
<path d="M40.3297 224.837C40.1744 224.838 40.0202 224.811 39.8741 224.758C38.8844 224.428 38.6173 223.187 38.5701 222.873C38.5397 222.711 38.5612 222.543 38.6318 222.393C38.7023 222.244 38.8182 222.12 38.9629 222.04C38.692 221.914 38.414 221.804 38.1302 221.711C37.9219 221.642 37.7494 221.493 37.6507 221.297C37.552 221.101 37.5352 220.874 37.6039 220.666C37.6727 220.457 37.8214 220.285 38.0173 220.186C38.2132 220.088 38.4404 220.071 38.6487 220.139C39.6228 220.485 41.8851 221.412 42.1522 222.763C42.2041 223.024 42.1831 223.294 42.0917 223.543C42.0002 223.792 41.8418 224.012 41.6337 224.177C41.2982 224.554 40.8322 224.79 40.3297 224.837ZM40.047 222.637C40.0938 222.85 40.1789 223.052 40.2983 223.234C40.2983 223.234 40.3926 223.156 40.5026 223.046C40.4035 222.896 40.2753 222.768 40.1255 222.669L40.047 222.637Z" fill="#2E2460"/>
<path d="M42.7804 205.685L81.0204 188.671C81.6493 188.377 82.249 188.025 82.8115 187.618C84.2411 186.44 88.4202 182.386 91.4524 180.972C91.6293 180.879 91.8315 180.846 92.029 180.877C92.2265 180.908 92.4086 181.002 92.5482 181.145C92.6878 181.288 92.7774 181.473 92.8036 181.671C92.8297 181.869 92.7912 182.07 92.6936 182.245C91.7509 183.816 89.9756 185.811 89.9913 186.565C89.9913 186.565 89.9913 188.137 92.5679 187.131C95.5215 185.906 102.136 182.905 106.016 180.721C106.185 180.617 106.388 180.582 106.582 180.623C106.776 180.665 106.946 180.779 107.058 180.944C107.169 181.108 107.213 181.309 107.18 181.504C107.147 181.7 107.04 181.875 106.88 181.994C103.103 184.915 99.1056 187.541 94.9245 189.849L95.2387 189.943C99.2607 188.262 106.519 184.837 110.258 182.795C110.429 182.682 110.638 182.642 110.838 182.684C111.038 182.725 111.214 182.844 111.327 183.015C111.439 183.186 111.479 183.394 111.438 183.595C111.397 183.795 111.277 183.971 111.107 184.083C106.87 187.339 102.39 190.264 97.7053 192.834V193.038C101.036 191.64 106.252 189.048 109.567 187.178C109.736 187.074 109.938 187.039 110.132 187.08C110.326 187.122 110.497 187.237 110.608 187.401C110.72 187.565 110.764 187.766 110.73 187.961C110.697 188.157 110.59 188.332 110.431 188.451C106.413 191.523 102.163 194.28 97.721 196.699V196.935C100.093 196.293 102.358 195.308 104.445 194.012C105.294 193.51 106.173 194.939 105.372 195.583C101.467 198.336 97.4009 200.855 93.1963 203.125L89.0329 205.387L47.3994 226.754C45.4812 227.739 43.2946 228.074 41.1693 227.709C39.0439 227.343 37.095 226.297 35.6163 224.727L29.7876 209.755" fill="white"/>
<path d="M42.8433 228.529C41.3738 228.535 39.9187 228.239 38.5677 227.661C37.2166 227.083 35.9984 226.234 34.9879 225.167C34.9212 225.093 34.868 225.008 34.8308 224.915L28.9864 209.943C28.94 209.846 28.9143 209.739 28.9108 209.631C28.9073 209.523 28.9262 209.416 28.9661 209.315C29.0061 209.215 29.0664 209.124 29.1432 209.048C29.2199 208.972 29.3116 208.912 29.4124 208.873C29.5131 208.834 29.6209 208.817 29.7289 208.821C29.8368 208.826 29.9427 208.852 30.0399 208.9C30.137 208.947 30.2234 209.014 30.2935 209.096C30.3637 209.178 30.4161 209.274 30.4475 209.378L36.2291 224.193C37.6003 225.591 39.3816 226.515 41.3141 226.832C43.2467 227.148 45.2298 226.84 46.9753 225.952L88.6088 204.601L92.7565 202.339C96.9368 200.094 100.977 197.597 104.854 194.861C104.828 194.784 104.778 194.718 104.712 194.672C102.575 196.023 100.244 197.04 97.7996 197.689C97.6728 197.718 97.5407 197.712 97.4166 197.674C97.2924 197.635 97.1807 197.564 97.0926 197.469C96.9997 197.376 96.9322 197.261 96.8964 197.134C96.8607 197.007 96.8579 196.874 96.8884 196.746C96.9486 196.453 97.1032 196.188 97.3283 195.992C101.719 193.591 105.92 190.86 109.897 187.822C106.02 189.997 102.034 191.974 97.9567 193.745C97.8539 193.795 97.7411 193.821 97.6268 193.821C97.5125 193.821 97.3997 193.795 97.2969 193.745C97.1935 193.692 97.1032 193.617 97.0326 193.524C96.9619 193.432 96.9127 193.325 96.8884 193.211C96.8424 193.022 96.8488 192.824 96.907 192.639C96.9651 192.453 97.0728 192.287 97.2183 192.158C101.866 189.601 106.314 186.697 110.525 183.47C106.629 185.607 99.3393 189.032 95.443 190.666C95.2746 190.721 95.093 190.721 94.9245 190.666L94.6103 190.587C94.4623 190.539 94.3308 190.45 94.2309 190.331C94.1309 190.211 94.0664 190.066 94.0447 189.912C94.0292 189.758 94.0597 189.602 94.1324 189.465C94.2051 189.328 94.3167 189.216 94.4532 189.142C98.593 186.865 102.553 184.276 106.299 181.397C101.903 183.783 97.3884 185.944 92.7722 187.869C92.3306 188.133 91.8293 188.28 91.3154 188.296C90.8015 188.313 90.2918 188.198 89.8343 187.964C89.6088 187.807 89.4251 187.598 89.2991 187.354C89.1732 187.111 89.1088 186.84 89.1116 186.565C89.1116 185.906 89.6614 184.994 90.6826 183.69C91.1225 183.078 91.5781 182.434 91.9238 181.852C91.9238 181.632 91.7667 181.664 91.7353 181.679C89.1141 183.204 86.6829 185.034 84.4926 187.131L83.2671 188.215C82.6489 188.656 81.9915 189.04 81.3033 189.362L43.1104 206.408C42.9208 206.493 42.7052 206.5 42.5108 206.426C42.3165 206.352 42.1592 206.205 42.0735 206.015C42.0292 205.922 42.0043 205.82 42.0001 205.717C41.996 205.613 42.0128 205.51 42.0494 205.413C42.0861 205.317 42.1419 205.228 42.2135 205.153C42.2852 205.079 42.3711 205.019 42.4663 204.979L80.7063 187.948C81.2554 187.672 81.7808 187.352 82.2774 186.99L83.44 185.968C85.7574 183.76 88.3376 181.844 91.1225 180.265C91.4558 180.108 91.8307 180.061 92.1925 180.132C92.5543 180.202 92.884 180.387 93.1335 180.658C93.3786 180.928 93.5295 181.27 93.5635 181.632C93.5975 181.995 93.5127 182.359 93.322 182.669C92.945 183.298 92.458 183.973 92.0023 184.617C91.5028 185.231 91.0758 185.901 90.7298 186.613C90.7298 186.707 91.0911 186.895 92.3008 186.424C95.443 185.167 101.9 182.182 105.655 180.14C105.997 179.95 106.398 179.895 106.778 179.985C107.159 180.075 107.492 180.304 107.713 180.627C107.93 180.952 108.018 181.346 107.96 181.732C107.902 182.119 107.702 182.469 107.399 182.716C106.456 183.47 105.435 184.287 104.398 184.963C106.472 183.957 108.436 182.968 109.913 182.166C110.255 181.983 110.653 181.933 111.03 182.026C111.408 182.118 111.737 182.348 111.955 182.669C112.172 182.994 112.26 183.388 112.202 183.775C112.144 184.161 111.944 184.512 111.641 184.759C110.934 185.34 110.164 185.921 109.363 186.503C109.7 186.395 110.064 186.405 110.395 186.53C110.726 186.656 111.005 186.889 111.187 187.193C111.368 187.496 111.442 187.853 111.396 188.203C111.351 188.554 111.188 188.88 110.934 189.126C109.079 190.598 107.15 191.972 105.152 193.243C105.356 193.294 105.547 193.386 105.714 193.513C105.881 193.64 106.022 193.799 106.126 193.981C106.254 194.148 106.347 194.339 106.4 194.542C106.453 194.746 106.464 194.958 106.433 195.166C106.403 195.374 106.33 195.574 106.221 195.754C106.112 195.933 105.967 196.089 105.796 196.212C101.858 198.988 97.7556 201.522 93.5106 203.8L89.3629 206.063L47.7137 227.429C46.2021 228.182 44.5315 228.559 42.8433 228.529Z" fill="#2E2460"/>
<path d="M45.3568 197.956C45.3568 197.956 33.9508 200.58 28.2949 197.217L44.2728 192.944L45.3568 197.956Z" fill="#2E2460"/>
<path d="M34.4536 125.451C34.4536 125.451 2.7964 140.297 19.0885 196.385C19.0885 196.385 36.3703 200.187 47.2579 190.855C47.2579 190.855 42.7489 164.79 44.2729 154.327" fill="white"/>
<path d="M27.431 197.956C24.5732 197.968 21.7212 197.699 18.9158 197.155C18.7778 197.125 18.6506 197.058 18.5481 196.961C18.4455 196.864 18.3717 196.741 18.3345 196.605C9.83494 167.383 14.5325 149.472 19.9055 139.527C25.8442 128.703 33.731 124.916 34.0452 124.759C34.2301 124.687 34.4356 124.687 34.6204 124.76C34.8052 124.832 34.9556 124.973 35.0412 125.152C35.1268 125.331 35.1414 125.536 35.0819 125.726C35.0225 125.915 34.8935 126.075 34.7208 126.173C34.4066 126.33 4.03766 141.381 19.6228 195.709C22.3564 196.196 36.7789 198.349 46.3311 190.54C45.7183 186.943 41.9949 164.052 43.4246 154.217C43.4537 154.009 43.5645 153.82 43.7324 153.694C43.8156 153.631 43.9103 153.585 44.0111 153.559C44.1119 153.533 44.2169 153.527 44.3201 153.541C44.4232 153.556 44.5226 153.591 44.6123 153.643C44.7021 153.696 44.7806 153.766 44.8433 153.849C44.9061 153.932 44.9518 154.027 44.9779 154.128C45.0041 154.229 45.0101 154.334 44.9957 154.437C43.5031 164.665 47.9179 190.462 47.965 190.729C47.9896 190.862 47.9777 191 47.9307 191.127C47.8837 191.254 47.8033 191.366 47.6979 191.452C41.5393 196.746 33.4482 197.956 27.431 197.956Z" fill="#2E2460"/>
<path d="M407.789 434.921H0.785539C0.577201 434.921 0.377396 434.839 0.230079 434.691C0.0827619 434.544 0 434.344 0 434.136C0 433.928 0.0827619 433.728 0.230079 433.58C0.377396 433.433 0.577201 433.35 0.785539 433.35H407.789C407.997 433.35 408.197 433.433 408.344 433.58C408.492 433.728 408.574 433.928 408.574 434.136C408.574 434.344 408.492 434.544 408.344 434.691C408.197 434.839 407.997 434.921 407.789 434.921Z" fill="#2E2460"/>
<path d="M292.064 242.983C305.452 242.983 316.305 232.13 316.305 218.741C316.305 205.353 305.452 194.5 292.064 194.5C278.675 194.5 267.822 205.353 267.822 218.741C267.822 232.13 278.675 242.983 292.064 242.983Z" fill="white"/>
<path d="M292.063 243.768C287.113 243.772 282.272 242.306 278.155 239.558C274.037 236.81 270.827 232.902 268.93 228.33C267.033 223.757 266.535 218.724 267.499 213.868C268.463 209.012 270.846 204.551 274.345 201.05C277.845 197.548 282.304 195.163 287.159 194.196C292.014 193.229 297.047 193.724 301.621 195.617C306.195 197.511 310.105 200.719 312.856 204.835C315.607 208.951 317.075 213.791 317.075 218.741C317.067 225.374 314.429 231.732 309.741 236.423C305.053 241.115 298.696 243.756 292.063 243.768ZM292.063 195.285C287.423 195.282 282.887 196.655 279.027 199.23C275.168 201.806 272.159 205.468 270.381 209.754C268.604 214.04 268.137 218.756 269.04 223.308C269.943 227.859 272.176 232.04 275.456 235.322C278.736 238.604 282.915 240.839 287.466 241.745C292.016 242.652 296.733 242.188 301.02 240.413C305.307 238.638 308.971 235.632 311.55 231.774C314.128 227.917 315.504 223.381 315.504 218.741C315.5 212.524 313.029 206.563 308.635 202.165C304.24 197.768 298.28 195.293 292.063 195.285Z" fill="#2E2460"/>
<path d="M286.816 242.983C300.204 242.983 311.058 232.13 311.058 218.741C311.058 205.353 300.204 194.5 286.816 194.5C273.428 194.5 262.574 205.353 262.574 218.741C262.574 232.13 273.428 242.983 286.816 242.983Z" fill="white"/>
<path d="M286.8 243.768C281.85 243.768 277.012 242.301 272.896 239.551C268.78 236.801 265.572 232.892 263.678 228.319C261.784 223.746 261.288 218.713 262.254 213.859C263.22 209.004 265.603 204.544 269.103 201.044C272.603 197.544 277.063 195.16 281.918 194.195C286.772 193.229 291.805 193.725 296.378 195.619C300.951 197.513 304.86 200.721 307.61 204.837C310.36 208.952 311.828 213.791 311.828 218.741C311.823 225.378 309.185 231.741 304.493 236.434C299.8 241.126 293.437 243.764 286.8 243.768ZM286.8 195.285C282.161 195.285 277.626 196.661 273.769 199.238C269.911 201.815 266.905 205.479 265.13 209.765C263.354 214.051 262.89 218.767 263.795 223.317C264.7 227.867 266.934 232.047 270.214 235.327C273.495 238.608 277.674 240.842 282.224 241.747C286.774 242.652 291.49 242.187 295.777 240.412C300.063 238.636 303.726 235.63 306.303 231.773C308.881 227.915 310.256 223.38 310.256 218.741C310.252 212.521 307.78 206.558 303.382 202.16C298.984 197.762 293.02 195.289 286.8 195.285Z" fill="#2E2460"/>
<path d="M286.816 235.929C296.308 235.929 304.004 228.234 304.004 218.741C304.004 209.249 296.308 201.554 286.816 201.554C277.324 201.554 269.628 209.249 269.628 218.741C269.628 228.234 277.324 235.929 286.816 235.929Z" fill="#F9B121"/>
<path opacity="0.2" d="M304.883 202.512L270.618 236.761C267.938 234.258 265.86 231.18 264.538 227.759L295.96 196.338C299.362 197.696 302.412 199.807 304.883 202.512Z" fill="white"/>
<path opacity="0.2" d="M311.073 214.609L282.794 242.889C280.261 242.427 277.82 241.557 275.567 240.312L308.56 207.319C309.785 209.598 310.633 212.06 311.073 214.609Z" fill="white"/>
<path d="M254.876 316.651H198.757C198.098 316.651 197.563 317.185 197.563 317.845V327.507C197.563 328.166 198.098 328.701 198.757 328.701H254.876C255.535 328.701 256.07 328.166 256.07 327.507V317.845C256.07 317.185 255.535 316.651 254.876 316.651Z" fill="white"/>
<path d="M254.876 329.486H198.773C198.512 329.489 198.252 329.439 198.01 329.34C197.768 329.242 197.548 329.096 197.363 328.912C197.177 328.728 197.03 328.509 196.93 328.268C196.829 328.027 196.778 327.768 196.778 327.507V317.845C196.782 317.318 196.994 316.815 197.368 316.444C197.741 316.073 198.246 315.865 198.773 315.865H254.876C255.4 315.869 255.901 316.079 256.271 316.45C256.642 316.82 256.852 317.321 256.856 317.845V327.507C256.856 328.032 256.647 328.535 256.276 328.907C255.905 329.278 255.401 329.486 254.876 329.486ZM198.773 317.436C198.663 317.436 198.557 317.479 198.478 317.555C198.399 317.631 198.353 317.735 198.349 317.845V327.507C198.353 327.617 198.399 327.721 198.478 327.797C198.557 327.873 198.663 327.915 198.773 327.915H254.876C254.984 327.915 255.088 327.872 255.165 327.796C255.241 327.719 255.285 327.615 255.285 327.507V317.845C255.285 317.736 255.241 317.633 255.165 317.556C255.088 317.479 254.984 317.436 254.876 317.436H198.773Z" fill="#2E2460"/>
<path d="M240.501 316.651L232.017 328.858H240.501L249.456 316.651H240.501Z" fill="#2E2460"/>
<path d="M197.563 318.615H256.07L254.106 316.651H199.527L197.563 318.615Z" fill="#2E2460"/>
<path d="M254.876 304.443H198.757C198.098 304.443 197.563 304.978 197.563 305.637V315.3C197.563 315.959 198.098 316.494 198.757 316.494H254.876C255.535 316.494 256.07 315.959 256.07 315.3V305.637C256.07 304.978 255.535 304.443 254.876 304.443Z" fill="white"/>
<path d="M254.876 317.358H198.773C198.244 317.358 197.736 317.148 197.362 316.773C196.988 316.399 196.778 315.892 196.778 315.362V305.716C196.778 305.187 196.988 304.679 197.362 304.305C197.736 303.931 198.244 303.721 198.773 303.721H254.876C255.402 303.725 255.906 303.937 256.277 304.311C256.648 304.684 256.856 305.19 256.856 305.716V315.362C256.856 315.889 256.648 316.394 256.277 316.768C255.906 317.142 255.402 317.354 254.876 317.358ZM198.773 305.292C198.66 305.292 198.552 305.337 198.473 305.416C198.393 305.496 198.349 305.604 198.349 305.716V315.362C198.349 315.475 198.393 315.583 198.473 315.662C198.552 315.742 198.66 315.787 198.773 315.787H254.876C254.986 315.783 255.09 315.736 255.166 315.657C255.242 315.578 255.285 315.472 255.285 315.362V305.716C255.285 305.606 255.242 305.501 255.166 305.422C255.09 305.342 254.986 305.296 254.876 305.292H198.773Z" fill="#2E2460"/>
<path d="M240.501 304.443L232.017 316.651H240.501L249.456 304.443H240.501Z" fill="#2E2460"/>
<path d="M197.563 306.407H256.07L254.106 304.443H199.527L197.563 306.407Z" fill="#2E2460"/>
<path d="M254.876 291.828H198.757C198.098 291.828 197.563 292.362 197.563 293.022V302.684C197.563 303.343 198.098 303.878 198.757 303.878H254.876C255.535 303.878 256.07 303.343 256.07 302.684V293.022C256.07 292.362 255.535 291.828 254.876 291.828Z" fill="white"/>
<path d="M254.876 304.663H198.773C198.244 304.663 197.736 304.453 197.362 304.079C196.988 303.705 196.778 303.197 196.778 302.668V293.022C196.778 292.76 196.829 292.502 196.93 292.261C197.03 292.019 197.177 291.8 197.363 291.616C197.548 291.432 197.768 291.287 198.01 291.188C198.252 291.09 198.512 291.04 198.773 291.042H254.876C255.401 291.042 255.905 291.251 256.276 291.622C256.647 291.993 256.856 292.497 256.856 293.022V302.668C256.856 303.195 256.648 303.7 256.277 304.073C255.906 304.447 255.402 304.659 254.876 304.663ZM198.773 292.613C198.718 292.611 198.663 292.62 198.612 292.64C198.56 292.659 198.513 292.689 198.474 292.727C198.434 292.765 198.403 292.811 198.381 292.862C198.36 292.912 198.349 292.967 198.349 293.022V302.668C198.349 302.781 198.393 302.889 198.473 302.968C198.552 303.048 198.66 303.092 198.773 303.092H254.876C254.986 303.088 255.09 303.042 255.166 302.963C255.242 302.884 255.285 302.778 255.285 302.668V293.022C255.285 292.913 255.241 292.81 255.165 292.733C255.088 292.656 254.984 292.613 254.876 292.613H198.773Z" fill="#2E2460"/>
<path d="M240.501 291.828L232.017 304.019H240.501L249.456 291.828H240.501Z" fill="#2E2460"/>
<path d="M197.563 293.792H256.07L254.106 291.828H199.527L197.563 293.792Z" fill="#2E2460"/>
<path d="M254.876 279.196H198.757C198.098 279.196 197.563 279.731 197.563 280.39V290.052C197.563 290.712 198.098 291.246 198.757 291.246H254.876C255.535 291.246 256.07 290.712 256.07 290.052V280.39C256.07 279.731 255.535 279.196 254.876 279.196Z" fill="white"/>
<path d="M254.876 292.032H198.773C198.246 292.032 197.741 291.824 197.368 291.453C196.994 291.082 196.782 290.579 196.778 290.052V280.39C196.782 279.864 196.994 279.36 197.368 278.989C197.741 278.619 198.246 278.411 198.773 278.411H254.876C255.4 278.415 255.901 278.625 256.271 278.995C256.642 279.365 256.852 279.866 256.856 280.39V290.052C256.852 290.576 256.642 291.077 256.271 291.448C255.901 291.818 255.4 292.028 254.876 292.032ZM198.773 279.982C198.663 279.982 198.557 280.024 198.478 280.1C198.399 280.177 198.353 280.28 198.349 280.39V290.052C198.353 290.162 198.399 290.266 198.478 290.342C198.557 290.418 198.663 290.461 198.773 290.461H254.876C254.984 290.461 255.088 290.418 255.165 290.341C255.241 290.265 255.285 290.161 255.285 290.052V280.39C255.285 280.282 255.241 280.178 255.165 280.101C255.088 280.025 254.984 279.982 254.876 279.982H198.773Z" fill="#2E2460"/>
<path d="M240.501 279.196L232.017 291.404H240.501L249.456 279.196H240.501Z" fill="#2E2460"/>
<path d="M197.563 281.16H256.07L254.106 279.196H199.527L197.563 281.16Z" fill="#2E2460"/>
<path d="M254.876 266.989H198.757C198.098 266.989 197.563 267.523 197.563 268.183V277.845C197.563 278.504 198.098 279.039 198.757 279.039H254.876C255.535 279.039 256.07 278.504 256.07 277.845V268.183C256.07 267.523 255.535 266.989 254.876 266.989Z" fill="white"/>
<path d="M254.876 279.825H198.773C198.512 279.827 198.252 279.777 198.01 279.678C197.768 279.58 197.548 279.434 197.363 279.25C197.177 279.066 197.03 278.847 196.93 278.606C196.829 278.365 196.778 278.106 196.778 277.845V268.183C196.782 267.656 196.994 267.153 197.368 266.782C197.741 266.411 198.246 266.203 198.773 266.203H254.876C255.4 266.207 255.901 266.417 256.271 266.788C256.642 267.158 256.852 267.659 256.856 268.183V277.845C256.856 278.37 256.647 278.874 256.276 279.245C255.905 279.616 255.401 279.825 254.876 279.825ZM198.773 267.774C198.663 267.774 198.557 267.817 198.478 267.893C198.399 267.969 198.353 268.073 198.349 268.183V277.845C198.349 277.9 198.36 277.954 198.381 278.005C198.403 278.056 198.434 278.101 198.474 278.14C198.513 278.178 198.56 278.207 198.612 278.227C198.663 278.247 198.718 278.256 198.773 278.254H254.876C254.984 278.254 255.088 278.21 255.165 278.134C255.241 278.057 255.285 277.953 255.285 277.845V268.183C255.285 268.075 255.241 267.971 255.165 267.894C255.088 267.817 254.984 267.774 254.876 267.774H198.773Z" fill="#2E2460"/>
<path d="M240.501 266.989L232.017 279.196H240.501L249.456 266.989H240.501Z" fill="#2E2460"/>
<path d="M197.563 268.953H256.07L254.106 266.989H199.527L197.563 268.953Z" fill="#2E2460"/>
<path d="M303.564 316.651H247.445C246.786 316.651 246.251 317.185 246.251 317.845V327.507C246.251 328.166 246.786 328.701 247.445 328.701H303.564C304.223 328.701 304.758 328.166 304.758 327.507V317.845C304.758 317.185 304.223 316.651 303.564 316.651Z" fill="white"/>
<path d="M303.564 329.486H247.461C247.199 329.489 246.94 329.439 246.698 329.34C246.456 329.242 246.236 329.096 246.051 328.912C245.865 328.728 245.718 328.509 245.617 328.268C245.517 328.027 245.465 327.768 245.465 327.507V317.845C245.469 317.318 245.682 316.815 246.055 316.444C246.429 316.073 246.934 315.865 247.461 315.865H303.564C304.089 315.865 304.592 316.074 304.964 316.445C305.335 316.816 305.543 317.32 305.543 317.845V327.507C305.545 327.767 305.496 328.026 305.397 328.267C305.298 328.508 305.152 328.727 304.968 328.911C304.784 329.096 304.565 329.241 304.324 329.34C304.083 329.439 303.824 329.489 303.564 329.486ZM247.461 317.436C247.351 317.436 247.245 317.479 247.166 317.555C247.087 317.631 247.04 317.735 247.036 317.845V327.507C247.04 327.617 247.087 327.721 247.166 327.797C247.245 327.873 247.351 327.915 247.461 327.915H303.564C303.672 327.915 303.776 327.872 303.853 327.796C303.929 327.719 303.972 327.615 303.972 327.507V317.845C303.972 317.736 303.929 317.633 303.853 317.556C303.776 317.479 303.672 317.436 303.564 317.436H247.461Z" fill="#2E2460"/>
<path d="M289.188 316.651L280.72 328.858H289.188L298.143 316.651H289.188Z" fill="#2E2460"/>
<path d="M246.251 318.615H304.758L302.81 316.651H248.215L246.251 318.615Z" fill="#2E2460"/>
<path d="M303.564 304.443H247.445C246.786 304.443 246.251 304.978 246.251 305.637V315.3C246.251 315.959 246.786 316.494 247.445 316.494H303.564C304.223 316.494 304.758 315.959 304.758 315.3V305.637C304.758 304.978 304.223 304.443 303.564 304.443Z" fill="white"/>
<path d="M303.564 317.358H247.461C246.931 317.358 246.424 317.148 246.05 316.773C245.676 316.399 245.465 315.892 245.465 315.362V305.716C245.465 305.187 245.676 304.679 246.05 304.305C246.424 303.931 246.931 303.721 247.461 303.721H303.564C303.825 303.721 304.084 303.773 304.325 303.873C304.566 303.973 304.785 304.121 304.969 304.306C305.153 304.492 305.299 304.712 305.397 304.954C305.496 305.196 305.545 305.455 305.543 305.716V315.362C305.545 315.624 305.496 315.883 305.397 316.125C305.299 316.367 305.153 316.587 304.969 316.772C304.785 316.958 304.566 317.105 304.325 317.206C304.084 317.306 303.825 317.358 303.564 317.358ZM247.461 305.292C247.405 305.292 247.35 305.303 247.298 305.324C247.247 305.345 247.2 305.377 247.161 305.416C247.121 305.456 247.09 305.502 247.069 305.554C247.047 305.605 247.036 305.66 247.036 305.716V315.362C247.036 315.418 247.047 315.473 247.069 315.525C247.09 315.576 247.121 315.623 247.161 315.662C247.2 315.702 247.247 315.733 247.298 315.754C247.35 315.776 247.405 315.787 247.461 315.787H303.564C303.619 315.787 303.673 315.776 303.724 315.754C303.774 315.733 303.82 315.701 303.858 315.662C303.896 315.622 303.926 315.575 303.946 315.524C303.965 315.472 303.974 315.417 303.972 315.362V305.716C303.974 305.661 303.965 305.606 303.946 305.555C303.926 305.504 303.896 305.457 303.858 305.417C303.82 305.377 303.774 305.346 303.724 305.324C303.673 305.303 303.619 305.292 303.564 305.292H247.461Z" fill="#2E2460"/>
<path d="M289.188 304.443L280.72 316.651H289.188L298.143 304.443H289.188Z" fill="#2E2460"/>
<path d="M246.251 306.407H304.758L302.81 304.443H248.215L246.251 306.407Z" fill="#2E2460"/>
<path d="M303.564 291.828H247.445C246.786 291.828 246.251 292.362 246.251 293.022V302.684C246.251 303.343 246.786 303.878 247.445 303.878H303.564C304.223 303.878 304.758 303.343 304.758 302.684V293.022C304.758 292.362 304.223 291.828 303.564 291.828Z" fill="white"/>
<path d="M303.564 304.663H247.461C246.931 304.663 246.424 304.453 246.05 304.079C245.676 303.705 245.465 303.197 245.465 302.668V293.022C245.465 292.76 245.517 292.502 245.617 292.261C245.718 292.019 245.865 291.8 246.051 291.616C246.236 291.432 246.456 291.287 246.698 291.188C246.94 291.09 247.199 291.04 247.461 291.042H303.564C303.824 291.04 304.083 291.09 304.324 291.189C304.565 291.287 304.784 291.433 304.968 291.617C305.152 291.802 305.298 292.021 305.397 292.262C305.496 292.503 305.545 292.761 305.543 293.022V302.668C305.545 302.929 305.496 303.189 305.397 303.431C305.299 303.672 305.153 303.893 304.969 304.078C304.785 304.264 304.566 304.411 304.325 304.511C304.084 304.612 303.825 304.663 303.564 304.663ZM247.461 292.613C247.406 292.611 247.351 292.62 247.299 292.64C247.248 292.659 247.201 292.689 247.162 292.727C247.122 292.765 247.09 292.811 247.069 292.862C247.047 292.912 247.036 292.967 247.036 293.022V302.668C247.036 302.724 247.047 302.779 247.069 302.83C247.09 302.882 247.121 302.929 247.161 302.968C247.2 303.007 247.247 303.039 247.298 303.06C247.35 303.081 247.405 303.092 247.461 303.092H303.564C303.619 303.092 303.673 303.081 303.724 303.06C303.774 303.038 303.82 303.007 303.858 302.967C303.896 302.928 303.926 302.881 303.946 302.829C303.965 302.778 303.974 302.723 303.972 302.668V293.022C303.974 292.967 303.965 292.913 303.946 292.863C303.926 292.812 303.896 292.766 303.858 292.728C303.819 292.69 303.773 292.66 303.723 292.64C303.672 292.62 303.618 292.611 303.564 292.613H247.461Z" fill="#2E2460"/>
<path d="M289.188 291.828L280.72 304.019H289.188L298.143 291.828H289.188Z" fill="#2E2460"/>
<path d="M246.251 293.792H304.758L302.81 291.828H248.215L246.251 293.792Z" fill="#2E2460"/>
<path d="M303.564 279.196H247.445C246.786 279.196 246.251 279.731 246.251 280.39V290.052C246.251 290.712 246.786 291.246 247.445 291.246H303.564C304.223 291.246 304.758 290.712 304.758 290.052V280.39C304.758 279.731 304.223 279.196 303.564 279.196Z" fill="white"/>
<path d="M303.564 292.032H247.461C246.934 292.032 246.429 291.824 246.055 291.453C245.682 291.082 245.469 290.579 245.465 290.052V280.39C245.469 279.864 245.682 279.36 246.055 278.989C246.429 278.619 246.934 278.411 247.461 278.411H303.564C304.089 278.411 304.592 278.619 304.964 278.99C305.335 279.362 305.543 279.865 305.543 280.39V290.052C305.543 290.577 305.335 291.081 304.964 291.452C304.592 291.823 304.089 292.032 303.564 292.032ZM247.461 279.982C247.351 279.982 247.245 280.024 247.166 280.1C247.087 280.177 247.04 280.28 247.036 280.39V290.052C247.04 290.162 247.087 290.266 247.166 290.342C247.245 290.418 247.351 290.461 247.461 290.461H303.564C303.672 290.461 303.776 290.418 303.853 290.341C303.929 290.265 303.972 290.161 303.972 290.052V280.39C303.972 280.282 303.929 280.178 303.853 280.101C303.776 280.025 303.672 279.982 303.564 279.982H247.461Z" fill="#2E2460"/>
<path d="M289.188 279.196L280.72 291.404H289.188L298.143 279.196H289.188Z" fill="#2E2460"/>
<path d="M246.251 281.16H304.758L302.81 279.196H248.215L246.251 281.16Z" fill="#2E2460"/>
<path d="M303.564 266.989H247.445C246.786 266.989 246.251 267.523 246.251 268.183V277.845C246.251 278.504 246.786 279.039 247.445 279.039H303.564C304.223 279.039 304.758 278.504 304.758 277.845V268.183C304.758 267.523 304.223 266.989 303.564 266.989Z" fill="white"/>
<path d="M303.564 279.825H247.461C247.199 279.827 246.94 279.777 246.698 279.678C246.456 279.58 246.236 279.434 246.051 279.25C245.865 279.066 245.718 278.847 245.617 278.606C245.517 278.365 245.465 278.106 245.465 277.845V268.183C245.469 267.656 245.682 267.153 246.055 266.782C246.429 266.411 246.934 266.203 247.461 266.203H303.564C304.089 266.203 304.592 266.412 304.964 266.783C305.335 267.154 305.543 267.658 305.543 268.183V277.845C305.545 278.106 305.496 278.364 305.397 278.605C305.298 278.846 305.152 279.065 304.968 279.249C304.784 279.434 304.565 279.579 304.324 279.678C304.083 279.777 303.824 279.827 303.564 279.825ZM247.461 267.774C247.351 267.774 247.245 267.817 247.166 267.893C247.087 267.969 247.04 268.073 247.036 268.183V277.845C247.036 277.9 247.047 277.954 247.069 278.005C247.09 278.056 247.122 278.101 247.162 278.14C247.201 278.178 247.248 278.207 247.299 278.227C247.351 278.247 247.406 278.256 247.461 278.254H303.564C303.618 278.256 303.672 278.247 303.723 278.227C303.773 278.207 303.819 278.177 303.858 278.139C303.896 278.1 303.926 278.055 303.946 278.004C303.965 277.953 303.974 277.899 303.972 277.845V268.183C303.972 268.075 303.929 267.971 303.853 267.894C303.776 267.817 303.672 267.774 303.564 267.774H247.461Z" fill="#2E2460"/>
<path d="M289.188 266.989L280.72 279.196H289.188L298.143 266.989H289.188Z" fill="#2E2460"/>
<path d="M246.251 268.953H304.758L302.81 266.989H248.215L246.251 268.953Z" fill="#2E2460"/>
<path d="M254.876 254.782H198.757C198.098 254.782 197.563 255.316 197.563 255.976V265.638C197.563 266.297 198.098 266.832 198.757 266.832H254.876C255.535 266.832 256.07 266.297 256.07 265.638V255.976C256.07 255.316 255.535 254.782 254.876 254.782Z" fill="white"/>
<path d="M254.876 267.633H198.773C198.244 267.633 197.736 267.423 197.362 267.049C196.988 266.674 196.778 266.167 196.778 265.638V255.991C196.778 255.462 196.988 254.955 197.362 254.581C197.736 254.206 198.244 253.996 198.773 253.996H254.876C255.402 254 255.906 254.212 256.277 254.586C256.648 254.96 256.856 255.465 256.856 255.991V265.638C256.856 266.164 256.648 266.669 256.277 267.043C255.906 267.417 255.402 267.629 254.876 267.633ZM198.773 255.567C198.66 255.567 198.552 255.612 198.473 255.691C198.393 255.771 198.349 255.879 198.349 255.991V265.638C198.349 265.693 198.36 265.749 198.381 265.8C198.402 265.852 198.434 265.898 198.473 265.938C198.512 265.977 198.559 266.008 198.611 266.03C198.662 266.051 198.717 266.062 198.773 266.062H254.876C254.986 266.058 255.09 266.011 255.166 265.932C255.242 265.853 255.285 265.748 255.285 265.638V255.991C255.285 255.882 255.242 255.776 255.166 255.697C255.09 255.618 254.986 255.571 254.876 255.567H198.773Z" fill="#2E2460"/>
<path d="M240.501 254.782L232.017 266.989H240.501L249.456 254.782H240.501Z" fill="#2E2460"/>
<path d="M197.563 256.746H256.07L254.106 254.782H199.527L197.563 256.746Z" fill="#2E2460"/>
<path d="M254.876 242.574H198.757C198.098 242.574 197.563 243.109 197.563 243.768V253.431C197.563 254.09 198.098 254.625 198.757 254.625H254.876C255.535 254.625 256.07 254.09 256.07 253.431V243.768C256.07 243.109 255.535 242.574 254.876 242.574Z" fill="white"/>
<path d="M254.876 255.426H198.773C198.244 255.426 197.736 255.216 197.362 254.841C196.988 254.467 196.778 253.96 196.778 253.43V243.784C196.778 243.522 196.829 243.263 196.929 243.021C197.03 242.778 197.177 242.559 197.362 242.373C197.547 242.188 197.767 242.041 198.009 241.941C198.251 241.84 198.511 241.789 198.773 241.789H254.876C255.402 241.793 255.906 242.005 256.277 242.379C256.648 242.752 256.856 243.258 256.856 243.784V253.43C256.856 253.957 256.648 254.462 256.277 254.836C255.906 255.21 255.402 255.422 254.876 255.426ZM198.773 243.36C198.66 243.36 198.552 243.405 198.473 243.484C198.393 243.564 198.349 243.672 198.349 243.784V253.43C198.349 253.543 198.393 253.651 198.473 253.73C198.552 253.81 198.66 253.855 198.773 253.855H254.876C254.986 253.851 255.09 253.804 255.166 253.725C255.242 253.646 255.285 253.54 255.285 253.43V243.784C255.285 243.674 255.242 243.569 255.166 243.49C255.09 243.41 254.986 243.364 254.876 243.36H198.773Z" fill="#2E2460"/>
<path d="M240.501 242.574L232.017 254.782H240.501L249.456 242.574H240.501Z" fill="#2E2460"/>
<path d="M197.563 244.538H256.07L254.106 242.574H199.527L197.563 244.538Z" fill="#2E2460"/>
<path d="M254.876 230.383H198.757C198.098 230.383 197.563 230.917 197.563 231.577V241.239C197.563 241.898 198.098 242.433 198.757 242.433H254.876C255.535 242.433 256.07 241.898 256.07 241.239V231.577C256.07 230.917 255.535 230.383 254.876 230.383Z" fill="white"/>
<path d="M254.876 243.218H198.773C198.246 243.218 197.741 243.01 197.368 242.64C196.994 242.269 196.782 241.765 196.778 241.239V231.577C196.778 231.315 196.829 231.057 196.93 230.816C197.03 230.574 197.177 230.355 197.363 230.171C197.548 229.987 197.768 229.842 198.01 229.743C198.252 229.645 198.512 229.595 198.773 229.597H254.876C255.401 229.597 255.905 229.806 256.276 230.177C256.647 230.548 256.856 231.052 256.856 231.577V241.239C256.852 241.763 256.642 242.264 256.271 242.634C255.901 243.004 255.4 243.214 254.876 243.218ZM198.773 231.168C198.718 231.166 198.663 231.175 198.612 231.195C198.56 231.214 198.513 231.244 198.474 231.282C198.434 231.32 198.403 231.366 198.381 231.417C198.36 231.467 198.349 231.522 198.349 231.577V241.239C198.353 241.349 198.399 241.453 198.478 241.529C198.557 241.605 198.663 241.647 198.773 241.647H254.876C254.984 241.647 255.088 241.604 255.165 241.528C255.241 241.451 255.285 241.347 255.285 241.239V231.577C255.285 231.468 255.241 231.365 255.165 231.288C255.088 231.211 254.984 231.168 254.876 231.168H198.773Z" fill="#2E2460"/>
<path d="M240.501 230.383L232.017 242.574H240.501L249.456 230.383H240.501Z" fill="#2E2460"/>
<path d="M197.563 232.347H256.07L254.106 230.383H199.527L197.563 232.347Z" fill="#2E2460"/>
<path d="M256.086 268.953L257.939 328.654L240.516 328.811V273.022C240.516 273.022 240.972 265.606 256.086 268.953Z" fill="#2E2460"/>
<path d="M197.563 277.075C197.563 277.075 223.313 280.217 223.8 304.443C223.759 309.601 222.225 314.636 219.384 318.94C216.543 323.245 212.516 326.635 207.791 328.701H192.818L197.532 278.976" fill="#2E2460"/>
<path d="M194.955 328.858C208.343 328.858 219.197 318.005 219.197 304.616C219.197 291.228 208.343 280.375 194.955 280.375C181.567 280.375 170.713 291.228 170.713 304.616C170.713 318.005 181.567 328.858 194.955 328.858Z" fill="white"/>
<path d="M194.955 329.644C190.004 329.65 185.162 328.187 181.042 325.441C176.922 322.695 173.71 318.788 171.811 314.216C169.912 309.643 169.411 304.61 170.374 299.753C171.336 294.896 173.717 290.434 177.216 286.93C180.715 283.427 185.174 281.04 190.03 280.072C194.885 279.104 199.919 279.598 204.494 281.491C209.069 283.384 212.98 286.592 215.731 290.709C218.482 294.825 219.951 299.665 219.951 304.616C219.922 311.24 217.28 317.584 212.6 322.27C207.919 326.957 201.578 329.606 194.955 329.644ZM194.955 281.16C190.315 281.154 185.777 282.524 181.915 285.098C178.054 287.671 175.042 291.333 173.262 295.618C171.482 299.904 171.013 304.621 171.914 309.173C172.816 313.725 175.047 317.908 178.327 321.191C181.606 324.475 185.785 326.712 190.336 327.619C194.887 328.527 199.605 328.064 203.893 326.29C208.181 324.516 211.846 321.509 214.425 317.651C217.003 313.793 218.38 309.257 218.38 304.616C218.335 298.421 215.851 292.492 211.467 288.114C207.083 283.735 201.151 281.26 194.955 281.223V281.16Z" fill="#2E2460"/>
<path d="M189.708 328.858C203.096 328.858 213.949 318.005 213.949 304.616C213.949 291.228 203.096 280.375 189.708 280.375C176.319 280.375 165.466 291.228 165.466 304.616C165.466 318.005 176.319 328.858 189.708 328.858Z" fill="white"/>
<path d="M189.707 329.644C184.758 329.644 179.919 328.176 175.803 325.426C171.687 322.676 168.48 318.767 166.585 314.194C164.691 309.621 164.195 304.589 165.161 299.734C166.127 294.879 168.51 290.419 172.011 286.919C175.511 283.419 179.97 281.036 184.825 280.07C189.68 279.104 194.712 279.6 199.285 281.494C203.858 283.388 207.767 286.596 210.517 290.712C213.267 294.828 214.735 299.666 214.735 304.616C214.706 311.245 212.06 317.594 207.372 322.281C202.685 326.969 196.336 329.615 189.707 329.644ZM189.707 281.16C185.068 281.16 180.533 282.536 176.676 285.113C172.819 287.691 169.812 291.354 168.037 295.64C166.261 299.926 165.797 304.642 166.702 309.192C167.607 313.742 169.841 317.922 173.121 321.202C176.402 324.483 180.581 326.717 185.131 327.622C189.681 328.527 194.398 328.062 198.684 326.287C202.97 324.512 206.633 321.505 209.211 317.648C211.788 313.79 213.164 309.255 213.164 304.616C213.118 298.415 210.63 292.482 206.24 288.103C201.849 283.724 195.909 281.252 189.707 281.223V281.16Z" fill="#2E2460"/>
<path d="M189.708 321.804C199.2 321.804 206.895 314.109 206.895 304.616C206.895 295.124 199.2 287.429 189.708 287.429C180.215 287.429 172.52 295.124 172.52 304.616C172.52 314.109 180.215 321.804 189.708 321.804Z" fill="#F9B121"/>
<path opacity="0.2" d="M207.791 288.387L173.526 322.637C170.837 320.14 168.757 317.06 167.446 313.634L198.773 282.291C202.2 283.618 205.282 285.702 207.791 288.387Z" fill="white"/>
<path opacity="0.2" d="M213.902 300.484L185.623 328.764C183.091 328.29 180.651 327.415 178.396 326.171L211.388 293.179C212.615 295.462 213.464 297.929 213.902 300.484Z" fill="white"/>
<path d="M288.796 108.944L221.467 133.97C217.977 135.267 216.2 139.147 217.497 142.636L231.619 180.63C232.916 184.119 236.796 185.896 240.285 184.599L307.614 159.573C311.104 158.276 312.881 154.396 311.584 150.907L297.461 112.913C296.165 109.424 292.285 107.647 288.796 108.944Z" fill="white"/>
<path d="M237.924 185.827C236.838 185.833 235.765 185.597 234.782 185.136C233.882 184.728 233.072 184.145 232.398 183.423C231.723 182.7 231.199 181.851 230.854 180.925L216.809 142.968C216.462 142.041 216.301 141.054 216.336 140.065C216.371 139.075 216.601 138.102 217.012 137.202C217.424 136.301 218.009 135.491 218.734 134.817C219.46 134.143 220.311 133.619 221.239 133.275L288.56 108.263C290.433 107.571 292.504 107.648 294.321 108.478C296.137 109.308 297.551 110.824 298.253 112.693L312.393 150.682C312.74 151.608 312.9 152.594 312.865 153.582C312.83 154.57 312.6 155.542 312.189 156.441C311.777 157.341 311.192 158.15 310.466 158.822C309.741 159.495 308.89 160.017 307.963 160.36L240.563 185.387C239.716 185.687 238.823 185.836 237.924 185.827ZM289.078 109.693L221.742 134.72C221.002 134.993 220.325 135.412 219.75 135.952C219.175 136.491 218.715 137.141 218.396 137.862C217.735 139.303 217.673 140.947 218.223 142.434L232.362 180.423C232.92 181.9 234.039 183.097 235.475 183.753C236.911 184.409 238.548 184.471 240.029 183.926L307.35 158.915C308.088 158.637 308.763 158.217 309.337 157.678C309.912 157.139 310.374 156.491 310.696 155.772C311.025 155.062 311.208 154.293 311.235 153.51C311.262 152.728 311.132 151.948 310.854 151.216L296.714 113.228C296.162 111.752 295.051 110.554 293.622 109.892C292.193 109.231 290.56 109.159 289.078 109.693Z" fill="#2E2460"/>
<path d="M298.708 116.3L218.743 146.023L222.258 155.477L302.222 125.755L298.708 116.3Z" fill="#2E2460"/>
<path d="M271.272 153.145L235.487 166.446L236.674 169.642L272.459 156.34L271.272 153.145Z" fill="#2E2460"/>
<path d="M249.261 153.557L232.944 159.621L233.94 162.302L250.257 156.237L249.261 153.557Z" fill="#2E2460"/>
<path d="M304.098 152.709C303.936 152.709 303.779 152.659 303.647 152.566C303.514 152.473 303.414 152.342 303.359 152.19L298.238 138.428C298.201 138.331 298.185 138.228 298.189 138.124C298.192 138.021 298.216 137.919 298.259 137.825C298.302 137.731 298.364 137.646 298.439 137.576C298.515 137.505 298.604 137.45 298.701 137.414C298.798 137.378 298.901 137.362 299.004 137.365C299.108 137.369 299.21 137.393 299.304 137.436C299.398 137.479 299.482 137.54 299.553 137.616C299.623 137.692 299.678 137.781 299.714 137.878L304.789 151.64C304.827 151.737 304.845 151.841 304.842 151.945C304.84 152.049 304.817 152.151 304.775 152.246C304.732 152.341 304.671 152.427 304.596 152.498C304.52 152.569 304.431 152.625 304.333 152.662L304.098 152.709Z" fill="#2E2460"/>
<path d="M320.091 329.486H165.466C165.257 329.486 165.058 329.404 164.91 329.256C164.763 329.109 164.68 328.909 164.68 328.701C164.684 328.494 164.768 328.296 164.915 328.15C165.061 328.003 165.259 327.919 165.466 327.915H320.091C320.298 327.919 320.496 328.003 320.642 328.15C320.789 328.296 320.873 328.494 320.877 328.701C320.877 328.909 320.794 329.109 320.647 329.256C320.499 329.404 320.3 329.486 320.091 329.486Z" fill="#2E2460"/>
</g>
<defs>
<clipPath id="clip0_338_4023">
<rect width="459.462" height="435" fill="white"/>
</clipPath>
</defs>
</svg>
