<svg width="30" height="30" viewBox="0 0 30 30" fill="none" xmlns="http://www.w3.org/2000/svg">
<g clip-path="url(#clip0_341_10383)">
<path d="M29.9531 22.6759L28.5908 28.5822C28.3995 29.4172 27.6656 30.0013 26.8061 30.0013C12.0234 30.0002 0 17.9767 0 3.19352C0 2.33454 0.584121 1.59977 1.41914 1.40934L7.32539 0.0470368C8.18555 -0.152299 9.06445 0.294185 9.42188 1.10876L12.1477 7.46618C12.4663 8.21501 12.2514 9.08747 11.6215 9.60192L8.4668 12.1349C10.4578 16.1908 13.7555 19.4884 17.8125 21.4806L20.3953 18.3283C20.9044 17.6966 21.7834 17.4781 22.5322 17.8024L28.8896 20.5276C29.6543 20.9298 30.1523 21.8205 29.9531 22.6759Z" fill="white"/>
</g>
<defs>
<clipPath id="clip0_341_10383">
<rect width="30" height="30" fill="white"/>
</clipPath>
</defs>
</svg>
